<svg xmlns="http://www.w3.org/2000/svg" version="1.1" xmlns:xlink="http://www.w3.org/1999/xlink" width="512" height="512" x="0" y="0" viewBox="0 0 512 512" style="enable-background:new 0 0 512 512" xml:space="preserve" class=""><g><linearGradient id="a" x1="118.874" x2="438.654" y1="383.604" y2="63.824" gradientUnits="userSpaceOnUse"><stop offset="0" style="stop-color:#FFFBFF;stop-opacity:0" stop-color="#fffbff;stop-opacity:0"></stop><stop offset="1" style="stop-color:#FFD9EB" stop-color="#ffd9eb"></stop></linearGradient><path d="M446.37 72.046c-81.385-91.614-223.384-87.161-318.235-35.088-48.88 26.835-89.649 67.058-105.932 119.652-39.785 128.51 106.823 132.874 143.846 216.936 29.874 67.832 36.163 121.058 98.848 135.63 56.598 13.157 122.458-21.307 136.959-69.367 10.046-33.294-11.471-52.705-16.8-72.023-15.107-54.765 54.802-78.793 85.917-111.136 48.252-50.158 21.621-132.57-24.603-184.604z" style="fill:url(#a);" fill=""></path><path d="M220.428 184.431a10 10 0 0 0 8.66 5h53.824a9.999 9.999 0 0 0 8.66-5l26.912-46.613a10.002 10.002 0 0 0 0-10l-26.912-46.613a10 10 0 0 0-8.66-5h-53.824a9.999 9.999 0 0 0-8.66 5l-26.912 46.613a10.002 10.002 0 0 0 0 10l26.912 46.613zM364.846 135.449h6.743a5 5 0 0 0 0-10h-6.743a5 5 0 0 0 0 10zM390.853 135.449h6.743a5 5 0 0 0 0-10h-6.743a5 5 0 0 0 0 10zM338.839 135.449h6.742a5 5 0 0 0 0-10h-6.742a5 5 0 0 0 0 10zM416.859 135.449h6.742a5 5 0 0 0 0-10h-6.742a5 5 0 0 0 0 10zM442.866 135.449h1.743v1.743a5 5 0 0 0 10 0v-6.743a5 5 0 0 0-5-5h-6.743a5 5 0 0 0 0 10zM454.608 156.456a5 5 0 0 0-10 0v6.742a5 5 0 0 0 10 0v-6.742zM449.608 177.439a5 5 0 0 0-5 5v6.742a5 5 0 0 0 10 0v-6.742a5 5 0 0 0-5-5zM140.412 135.449h6.743a5 5 0 0 0 0-10h-6.743a5 5 0 0 0 0 10zM114.405 135.449h6.743a5 5 0 0 0 0-10h-6.743a5 5 0 0 0 0 10zM166.418 135.449h6.742a5 5 0 0 0 0-10h-6.742a5 5 0 0 0 0 10zM88.398 135.449h6.742a5 5 0 0 0 0-10h-6.742a5 5 0 0 0 0 10zM62.392 142.192a5 5 0 0 0 5-5v-1.743h1.743a5 5 0 0 0 0-10h-6.743a5 5 0 0 0-5 5v6.743a5 5 0 0 0 5 5zM62.392 168.198a5 5 0 0 0 5-5v-6.742a5 5 0 0 0-10 0v6.742a5 5 0 0 0 5 5zM62.392 194.181a5 5 0 0 0 5-5v-6.742a5 5 0 0 0-10 0v6.742a5 5 0 0 0 5 5zM471.241 218.288h-94.063c-5.523 0-10 4.477-10 10v91.146H144.822v-91.146c0-5.523-4.477-10-10-10H40.759c-5.523 0-10 4.477-10 10v91.958c0 5.523 4.477 10 10 10h47.035v57.087c0 5.523 4.477 10 10 10h119.327l-6.068 38.463h-14.457a4 4 0 0 0-4 4v18a4 4 0 0 0 4 4h118.809a4 4 0 0 0 4-4v-18a4 4 0 0 0-4-4h-14.457l-6.068-38.463h119.328c5.523 0 10-4.477 10-10v-57.087h47.034c5.523 0 10-4.477 10-10v-91.958c-.001-5.523-4.478-10-10.001-10z" style="opacity:0.1;" fill="#2626bc" data-original="#2626bc" class=""></path><path d="m218.266 362.592-7.737 59.069h90.943l-7.737-59.069z" style="" fill="#4369fc" data-original="#4369fc"></path><path d="m298.286 397.333-4.551-34.741h-75.469l-4.55 34.741z" style="" fill="#2d58df" data-original="#2d58df"></path><path d="m218.266 362.592-7.737 59.069h90.943l-7.737-59.069z" style="stroke-width:10;stroke-linecap:round;stroke-linejoin:round;stroke-miterlimit:10;" fill="none" stroke="#2626bc" stroke-width="10" stroke-linecap="round" stroke-linejoin="round" stroke-miterlimit="10" data-original="#2626bc" class=""></path><path d="M315.405 417.661H196.596a4 4 0 0 0-4 4v12.135a4 4 0 0 0 4 4h118.809a4 4 0 0 0 4-4v-12.135a4 4 0 0 0-4-4z" style="" fill="#6582fd" data-original="#6582fd"></path><path d="M315.405 417.661H196.596a4 4 0 0 0-4 4v12.135a4 4 0 0 0 4 4h118.809a4 4 0 0 0 4-4v-12.135a4 4 0 0 0-4-4z" style="stroke-width:10;stroke-linecap:round;stroke-linejoin:round;stroke-miterlimit:10;" fill="none" stroke="#2626bc" stroke-width="10" stroke-linecap="round" stroke-linejoin="round" stroke-miterlimit="10" data-original="#2626bc" class=""></path><path d="M424.21 157.67v172.58L256 349.01 87.79 330.25V157.67c0-5.52 4.48-10 10-10h316.42c5.52 0 10 4.48 10 10z" style="" fill="#ffffff" data-original="#ffffff"></path><path d="M144.82 226.18v94.07c0 5.52-4.47 10-10 10H87.79V216.18h47.03c5.53 0 10 4.48 10 10zM367.18 226.18v94.07c0 5.52 4.47 10 10 10h47.03V216.18h-47.03c-5.53 0-10 4.48-10 10zM312.79 147.67l-21.22 36.76c-1.78 3.09-5.09 5-8.66 5h-53.82c-3.57 0-6.88-1.91-8.66-5l-21.22-36.76h113.58z" style="" fill="#d1ddff" data-original="#d1ddff"></path><path d="M87.793 330.246v31.087c0 5.523 4.477 10 10 10h316.414c5.523 0 10-4.477 10-10v-31.087H87.793z" style="" fill="#6582fd" data-original="#6582fd"></path><path d="M149.651 371.333h264.557c5.523 0 10-4.477 10-10V157.677c0-5.523-4.477-10-10-10H97.794c-5.523 0-10 4.477-10 10v203.656c0 5.523 4.477 10 10 10h29.096" style="stroke-width:10;stroke-linecap:round;stroke-linejoin:round;stroke-miterlimit:10;" fill="none" stroke="#2626bc" stroke-width="10" stroke-linecap="round" stroke-linejoin="round" stroke-miterlimit="10" data-original="#2626bc" class=""></path><circle cx="256" cy="349.008" r="7.537" style="" fill="#9eaffd" data-original="#9eaffd"></circle><path d="M252.64 191.58v98.77c0 13.3-10.79 24.09-24.1 24.09-7.94 0-14.99-3.85-19.38-9.78-9.23-.67-16.51-8.37-16.51-17.77 0-3.15.82-6.11 2.25-8.67-4.97-3.16-8.27-8.72-8.27-15.04 0-1.33.15-2.62.43-3.86-6.5-4.32-10.79-11.7-10.79-20.08 0-7.17 3.13-13.59 8.09-18.01-.12-.83-.19-1.69-.19-2.56 0-7.58 4.75-14.06 11.43-16.63-.02-.39-.03-.79-.03-1.18 0-11.94 9.67-21.61 21.6-21.61.09 0 .18 0 .27.01l10.61 6.28 24.46 3.89c.09.7.13 1.42.13 2.15z" style="" fill="#ffa7ce" data-original="#ffa7ce" class=""></path><path d="M252.51 189.43h-23.42c-3.57 0-6.88-1.91-8.66-5l-2.99-5.17c1.41.01 2.78.16 4.11.43 3.26-3.64 8-5.93 13.27-5.93 9.11 0 16.63 6.84 17.69 15.67z" style="" fill="#ff7eb7" data-original="#ff7eb7" class=""></path><path d="M324.94 259.32c.28 1.24.43 2.53.43 3.86 0 6.32-3.3 11.88-8.27 15.04 1.43 2.56 2.25 5.52 2.25 8.67 0 9.4-7.28 17.1-16.51 17.77-4.39 5.93-11.44 9.78-19.38 9.78-13.31 0-24.1-10.79-24.1-24.09v-98.77c0-.73.04-1.45.13-2.15l22.58-3.61 12.49-6.56c.09-.01.18-.01.27-.01 11.93 0 21.6 9.67 21.6 21.61 0 .39-.01.79-.03 1.18 6.68 2.57 11.42 9.05 11.42 16.63 0 .87-.06 1.73-.18 2.56 4.96 4.42 8.09 10.84 8.09 18.01 0 8.38-4.29 15.76-10.79 20.08z" style="" fill="#9eaffd" data-original="#9eaffd"></path><path d="m294.56 179.26-2.99 5.17c-1.78 3.09-5.09 5-8.66 5h-23.42c1.06-8.83 8.58-15.67 17.69-15.67 5.27 0 10.01 2.29 13.27 5.93 1.33-.27 2.7-.42 4.11-.43z" style="" fill="#8298fd" data-original="#8298fd" class=""></path><path d="M144.822 274.624h66.609" style="stroke-width:10;stroke-linecap:round;stroke-linejoin:round;stroke-miterlimit:10;" fill="none" stroke="#2626bc" stroke-width="10" stroke-linecap="round" stroke-linejoin="round" stroke-miterlimit="10" data-original="#2626bc" class=""></path><circle cx="222.558" cy="274.624" r="11.126" style="" fill="#ff5ba7" data-original="#ff5ba7"></circle><circle cx="222.558" cy="274.624" r="11.126" style="stroke-width:10;stroke-linecap:round;stroke-linejoin:round;stroke-miterlimit:10;" fill="none" stroke="#2626bc" stroke-width="10" stroke-linecap="round" stroke-linejoin="round" stroke-miterlimit="10" data-original="#2626bc" class=""></circle><path d="M144.822 237.541h52.105" style="stroke-width:10;stroke-linecap:round;stroke-linejoin:round;stroke-miterlimit:10;" fill="none" stroke="#2626bc" stroke-width="10" stroke-linecap="round" stroke-linejoin="round" stroke-miterlimit="10" data-original="#2626bc" class=""></path><circle cx="208.053" cy="237.541" r="11.126" style="" fill="#ff5ba7" data-original="#ff5ba7"></circle><circle cx="208.053" cy="237.541" r="11.126" style="stroke-width:10;stroke-linecap:round;stroke-linejoin:round;stroke-miterlimit:10;" fill="none" stroke="#2626bc" stroke-width="10" stroke-linecap="round" stroke-linejoin="round" stroke-miterlimit="10" data-original="#2626bc" class=""></circle><path d="M367.177 237.541h-66.609" style="stroke-width:10;stroke-linecap:round;stroke-linejoin:round;stroke-miterlimit:10;" fill="none" stroke="#2626bc" stroke-width="10" stroke-linecap="round" stroke-linejoin="round" stroke-miterlimit="10" data-original="#2626bc" class=""></path><circle cx="289.442" cy="237.541" r="11.126" style="" fill="#4369fc" data-original="#4369fc"></circle><circle cx="289.442" cy="237.541" r="11.126" style="stroke-width:10;stroke-linecap:round;stroke-linejoin:round;stroke-miterlimit:10;" fill="none" stroke="#2626bc" stroke-width="10" stroke-linecap="round" stroke-linejoin="round" stroke-miterlimit="10" data-original="#2626bc" class=""></circle><path d="M367.177 274.624h-36.105" style="stroke-width:10;stroke-linecap:round;stroke-linejoin:round;stroke-miterlimit:10;" fill="none" stroke="#2626bc" stroke-width="10" stroke-linecap="round" stroke-linejoin="round" stroke-miterlimit="10" data-original="#2626bc" class=""></path><circle cx="319.946" cy="274.624" r="11.126" style="" fill="#4369fc" data-original="#4369fc"></circle><circle cx="319.946" cy="274.624" r="11.126" style="stroke-width:10;stroke-linecap:round;stroke-linejoin:round;stroke-miterlimit:10;" fill="none" stroke="#2626bc" stroke-width="10" stroke-linecap="round" stroke-linejoin="round" stroke-miterlimit="10" data-original="#2626bc" class=""></circle><path d="M282.912 50.204h-53.824a9.999 9.999 0 0 0-8.66 5l-26.912 46.613a10.002 10.002 0 0 0 0 10l26.912 46.613a10 10 0 0 0 8.66 5h53.824a9.999 9.999 0 0 0 8.66-5l26.912-46.613a10.002 10.002 0 0 0 0-10l-26.912-46.613a9.999 9.999 0 0 0-8.66-5z" style="" fill="#01eba4" data-original="#01eba4"></path><path d="m301.076 71.665-9.504-16.461a10 10 0 0 0-8.66-5h-53.824a9.999 9.999 0 0 0-8.66 5l-26.912 46.613a10.002 10.002 0 0 0 0 10l26.912 46.613a10 10 0 0 0 8.66 5h53.824a9.999 9.999 0 0 0 8.66-5l26.912-46.613a10.002 10.002 0 0 0 0-10l-6.03-10.443" style="stroke-width:10;stroke-linecap:round;stroke-linejoin:round;stroke-miterlimit:10;" fill="none" stroke="#2626bc" stroke-width="10" stroke-linecap="round" stroke-linejoin="round" stroke-miterlimit="10" data-original="#2626bc" class=""></path><path d="m255.545 125.891-14.86-38.147-14.86 38.147M233.051 118.329h15.268M271.164 88.017h11.011M271.164 125.891h11.011M276.669 88.017v37.874" style="stroke-width:10;stroke-linecap:round;stroke-linejoin:round;stroke-miterlimit:10;" fill="none" stroke="#ffffff" stroke-width="10" stroke-linecap="round" stroke-linejoin="round" stroke-miterlimit="10" data-original="#ffffff"></path><path d="M364.846 112.449h6.742M390.853 112.449h6.742M338.839 112.449h6.743M416.859 112.449h6.743M449.608 119.192v-6.743h-6.742M449.608 145.198v-6.742M449.608 171.181v-6.742M147.154 112.449h-6.742M121.147 112.449h-6.742M173.161 112.449h-6.743M95.141 112.449h-6.743M62.392 119.192v-6.743h6.742M62.392 145.198v-6.742M62.392 171.181v-6.742" style="stroke-width:10;stroke-linecap:round;stroke-linejoin:round;stroke-miterlimit:10;" fill="none" stroke="#2626bc" stroke-width="10" stroke-linecap="round" stroke-linejoin="round" stroke-miterlimit="10" data-original="#2626bc" class=""></path><path d="M471.241 304.352h-94.064c-5.523 0-10-4.477-10-10v-94.064c0-5.523 4.477-10 10-10h94.064c5.523 0 10 4.477 10 10v94.064c0 5.523-4.477 10-10 10z" style="" fill="#b6c4ff" data-original="#b6c4ff"></path><path d="M481.24 221.921v-21.632c0-5.523-4.477-10-10-10h-94.064c-5.523 0-10 4.477-10 10v21.632H481.24z" style="" fill="#8298fd" data-original="#8298fd" class=""></path><path d="M471.24 304.352h-94.064c-5.523 0-10-4.477-10-10v-94.064c0-5.523 4.477-10 10-10h94.064c5.523 0 10 4.477 10 10v94.064c0 5.523-4.477 10-10 10z" style="stroke-width:10;stroke-linecap:round;stroke-linejoin:round;stroke-miterlimit:10;" fill="none" stroke="#2626bc" stroke-width="10" stroke-linecap="round" stroke-linejoin="round" stroke-miterlimit="10" data-original="#2626bc" class=""></path><path d="M391.751 239.888h3.532" style="stroke-width:10;stroke-linecap:round;stroke-linejoin:round;stroke-miterlimit:10;" fill="none" stroke="#4369fc" stroke-width="10" stroke-linecap="round" stroke-linejoin="round" stroke-miterlimit="10" data-original="#4369fc"></path><path d="M414.153 239.888h42.515" style="stroke-width:10;stroke-linecap:round;stroke-linejoin:round;stroke-miterlimit:10;" fill="none" stroke="#8298fd" stroke-width="10" stroke-linecap="round" stroke-linejoin="round" stroke-miterlimit="10" data-original="#8298fd"></path><path d="M391.751 257.868h3.532" style="stroke-width:10;stroke-linecap:round;stroke-linejoin:round;stroke-miterlimit:10;" fill="none" stroke="#4369fc" stroke-width="10" stroke-linecap="round" stroke-linejoin="round" stroke-miterlimit="10" data-original="#4369fc"></path><path d="M414.153 257.868h42.515" style="stroke-width:10;stroke-linecap:round;stroke-linejoin:round;stroke-miterlimit:10;" fill="none" stroke="#8298fd" stroke-width="10" stroke-linecap="round" stroke-linejoin="round" stroke-miterlimit="10" data-original="#8298fd"></path><path d="M391.751 275.848h3.532" style="stroke-width:10;stroke-linecap:round;stroke-linejoin:round;stroke-miterlimit:10;" fill="none" stroke="#4369fc" stroke-width="10" stroke-linecap="round" stroke-linejoin="round" stroke-miterlimit="10" data-original="#4369fc"></path><path d="M414.153 275.848h42.515" style="stroke-width:10;stroke-linecap:round;stroke-linejoin:round;stroke-miterlimit:10;" fill="none" stroke="#8298fd" stroke-width="10" stroke-linecap="round" stroke-linejoin="round" stroke-miterlimit="10" data-original="#8298fd"></path><path d="M134.822 304.352H40.759c-5.523 0-10-4.477-10-10v-94.064c0-5.523 4.477-10 10-10h94.064c5.523 0 10 4.477 10 10v94.064c-.001 5.523-4.478 10-10.001 10z" style="" fill="#ffdaec" data-original="#ffdaec"></path><path d="M144.822 221.921v-21.632c0-5.523-4.477-10-10-10H40.759c-5.523 0-10 4.477-10 10v21.632h114.063z" style="" fill="#ff7eb7" data-original="#ff7eb7" class=""></path><path d="M134.822 304.352H40.759c-5.523 0-10-4.477-10-10v-94.064c0-5.523 4.477-10 10-10h94.064c5.523 0 10 4.477 10 10v94.064c-.001 5.523-4.478 10-10.001 10z" style="stroke-width:10;stroke-linecap:round;stroke-linejoin:round;stroke-miterlimit:10;" fill="none" stroke="#2626bc" stroke-width="10" stroke-linecap="round" stroke-linejoin="round" stroke-miterlimit="10" data-original="#2626bc" class=""></path><path d="M55.332 239.888h3.531" style="stroke-width:10;stroke-linecap:round;stroke-linejoin:round;stroke-miterlimit:10;" fill="none" stroke="#fd2c8e" stroke-width="10" stroke-linecap="round" stroke-linejoin="round" stroke-miterlimit="10" data-original="#fd2c8e"></path><path d="M77.733 239.888h42.515" style="stroke-width:10;stroke-linecap:round;stroke-linejoin:round;stroke-miterlimit:10;" fill="none" stroke="#ffa7ce" stroke-width="10" stroke-linecap="round" stroke-linejoin="round" stroke-miterlimit="10" data-original="#ffa7ce"></path><path d="M55.332 257.868h3.531" style="stroke-width:10;stroke-linecap:round;stroke-linejoin:round;stroke-miterlimit:10;" fill="none" stroke="#fd2c8e" stroke-width="10" stroke-linecap="round" stroke-linejoin="round" stroke-miterlimit="10" data-original="#fd2c8e"></path><path d="M77.733 257.868h42.515" style="stroke-width:10;stroke-linecap:round;stroke-linejoin:round;stroke-miterlimit:10;" fill="none" stroke="#ffa7ce" stroke-width="10" stroke-linecap="round" stroke-linejoin="round" stroke-miterlimit="10" data-original="#ffa7ce"></path><path d="M55.332 275.848h3.531" style="stroke-width:10;stroke-linecap:round;stroke-linejoin:round;stroke-miterlimit:10;" fill="none" stroke="#fd2c8e" stroke-width="10" stroke-linecap="round" stroke-linejoin="round" stroke-miterlimit="10" data-original="#fd2c8e"></path><path d="M77.733 275.848h42.515" style="stroke-width:10;stroke-linecap:round;stroke-linejoin:round;stroke-miterlimit:10;" fill="none" stroke="#ffa7ce" stroke-width="10" stroke-linecap="round" stroke-linejoin="round" stroke-miterlimit="10" data-original="#ffa7ce"></path><circle cx="385.853" cy="437.796" r="10" style="stroke-width:10;stroke-linecap:round;stroke-linejoin:round;stroke-miterlimit:10;" fill="none" stroke="#6582fd" stroke-width="10" stroke-linecap="round" stroke-linejoin="round" stroke-miterlimit="10" data-original="#6582fd"></circle><circle cx="352.211" cy="66.204" r="10" style="stroke-width:10;stroke-linecap:round;stroke-linejoin:round;stroke-miterlimit:10;" fill="none" stroke="#ff5ba7" stroke-width="10" stroke-linecap="round" stroke-linejoin="round" stroke-miterlimit="10" data-original="#ff5ba7"></circle><path d="M437.866 407.161c0 5.799-4.701 10.5-10.5 10.5 5.799 0 10.5 4.701 10.5 10.5 0-5.799 4.701-10.5 10.5-10.5-5.799 0-10.5-4.701-10.5-10.5z" style="stroke-width:10;stroke-linecap:round;stroke-linejoin:round;stroke-miterlimit:10;" fill="none" stroke="#01eba4" stroke-width="10" stroke-linecap="round" stroke-linejoin="round" stroke-miterlimit="10" data-original="#01eba4"></path><path d="M46.598 346.045c0 5.799-4.701 10.5-10.5 10.5 5.799 0 10.5 4.701 10.5 10.5 0-5.799 4.701-10.5 10.5-10.5-5.8.001-10.5-4.701-10.5-10.5z" style="stroke-width:10;stroke-linecap:round;stroke-linejoin:round;stroke-miterlimit:10;" fill="none" stroke="#ff5ba7" stroke-width="10" stroke-linecap="round" stroke-linejoin="round" stroke-miterlimit="10" data-original="#ff5ba7"></path><path d="M183.973 27.218c0 5.799-4.701 10.5-10.5 10.5 5.799 0 10.5 4.701 10.5 10.5 0-5.799 4.701-10.5 10.5-10.5-5.799 0-10.5-4.701-10.5-10.5z" style="stroke-width:10;stroke-linecap:round;stroke-linejoin:round;stroke-miterlimit:10;" fill="none" stroke="#6582fd" stroke-width="10" stroke-linecap="round" stroke-linejoin="round" stroke-miterlimit="10" data-original="#6582fd"></path></g></svg>