<svg xmlns="http://www.w3.org/2000/svg" version="1.1" xmlns:xlink="http://www.w3.org/1999/xlink" width="512" height="512" x="0" y="0" viewBox="0 0 512 512" style="enable-background:new 0 0 512 512" xml:space="preserve"><g><linearGradient id="a" x1="57.819" x2="468.357" y1="451.18" y2="40.642" gradientUnits="userSpaceOnUse"><stop offset="0" style="stop-color:#FFF2ED;stop-opacity:0" stop-color="#fff2ed;stop-opacity:0"></stop><stop offset=".294" style="stop-color:#FFE9DD;stop-opacity:0.3731" stop-color="#ffe9dd;stop-opacity:0.3731"></stop><stop offset=".787" style="stop-color:#FFD5BA" stop-color="#ffd5ba"></stop></linearGradient><path d="M506.372 134.74C484.556 9.6 427.787-10.01 317.447 76.32c-33.616 26.301-40.292-26.957-95.198-49.138C130.313-9.958 44.441 86.603 83.047 151.198c8.476 14.182 26.308 24.09 27.672 40.549 4.96 59.855-93.552 88.482-108.889 147.818-23.564 91.162 187.248 231.37 239.34 99.742 66.338-167.624 49.967-19.75 127.033-3.968 131.061 26.839 157.418-190.186 138.169-300.599z" style="fill:url(#a);" fill=""></path><g style="opacity:0.1;"><path d="M218.777 162.012H41.93c-5.523 0-10 4.477-10 10v215.976c0 5.523 4.477 10 10 10h176.846c5.523 0 10-4.477 10-10V172.012c.001-5.523-4.476-10-9.999-10zM470.07 162.012H293.223c-5.523 0-10 4.477-10 10v215.976c0 5.523 4.477 10 10 10H470.07c5.523 0 10-4.477 10-10V172.012c0-5.523-4.478-10-10-10zM188.907 428.415c-2.61-2.145-6.54-.289-6.54 3.09v53.48c0 3.379 3.93 5.236 6.54 3.09l32.532-26.74a4 4 0 0 0 0-6.18l-32.532-26.74zM323.093 428.415l-32.532 26.74a4 4 0 0 0 0 6.18l32.532 26.74c2.61 2.145 6.54.289 6.54-3.09v-53.48c0-3.379-3.93-5.236-6.54-3.09zM188.907 131.585l32.532-26.74a4 4 0 0 0 0-6.18l-32.532-26.74c-2.61-2.145-6.54-.289-6.54 3.09v53.48c0 3.379 3.93 5.236 6.54 3.09zM323.093 131.585c2.61 2.145 6.54.289 6.54-3.09v-53.48c0-3.379-3.93-5.236-6.54-3.09l-32.532 26.74a4 4 0 0 0 0 6.18l32.532 26.74zM256 448.451a5 5 0 0 0-5 5v30.487a5 5 0 0 0 10 0v-30.487a5 5 0 0 0-5-5zM256 408.527a5 5 0 0 0-5 5v12.416a5 5 0 0 0 10 0v-12.416a5 5 0 0 0-5-5zM256 368.603a5 5 0 0 0-5 5v12.416a5 5 0 0 0 10 0v-12.416a5 5 0 0 0-5-5zM256 328.678a5 5 0 0 0-5 5v12.416a5 5 0 0 0 10 0v-12.416a5 5 0 0 0-5-5zM256 288.754a5 5 0 0 0-5 5v12.416a5 5 0 0 0 10 0v-12.416a5 5 0 0 0-5-5zM256 248.83a5 5 0 0 0-5 5v12.416a5 5 0 0 0 10 0V253.83a5 5 0 0 0-5-5zM256 208.906a5 5 0 0 0-5 5v12.416a5 5 0 0 0 10 0v-12.416a5 5 0 0 0-5-5zM256 168.981a5 5 0 0 0-5 5v12.416a5 5 0 0 0 10 0v-12.416a5 5 0 0 0-5-5zM256 129.057a5 5 0 0 0-5 5v12.416a5 5 0 0 0 10 0v-12.416a5 5 0 0 0-5-5zM256 71.062a5 5 0 0 0-5 5v30.487a5 5 0 0 0 10 0V76.062a5 5 0 0 0-5-5z" style="" fill="#0000cb" data-original="#0000cb"></path></g><path d="M256 459.938v-30.487M256 401.943v-12.416M256 362.019v-12.416M256 322.094v-12.416M256 282.17v-12.416M256 242.246V229.83M256 202.322v-12.416M256 162.397v-12.416M256 122.473v-12.416M256 82.549V52.062" style="stroke-width:10;stroke-linecap:round;stroke-linejoin:round;stroke-miterlimit:10;" fill="none" stroke="#0000cb" stroke-width="10" stroke-linecap="round" stroke-linejoin="round" stroke-miterlimit="10" data-original="#0000cb"></path><path d="M228.78 190.32v173.67c0 5.52-4.48 10-10 10H41.93c-5.52 0-10-4.48-10-10V190.32l98.424-3 98.426 3z" style="" fill="#4d4dff" data-original="#4d4dff"></path><path d="M228.777 190.317v-42.305c0-5.523-4.477-10-10-10H41.93c-5.523 0-10 4.477-10 10v42.305h196.847z" style="" fill="#9393ff" data-original="#9393ff"></path><path d="M82.658 138.012H41.93c-5.523 0-10 4.477-10 10v215.976c0 5.523 4.477 10 10 10h176.846c5.523 0 10-4.477 10-10V148.012c0-5.523-4.477-10-10-10H111.041" style="stroke-width:10;stroke-linecap:round;stroke-linejoin:round;stroke-miterlimit:10;" fill="none" stroke="#0000cb" stroke-width="10" stroke-linecap="round" stroke-linejoin="round" stroke-miterlimit="10" data-original="#0000cb"></path><path d="M73.541 175.104H61.074a3 3 0 0 1-3-3v-12.467a3 3 0 0 1 3-3h12.467a3 3 0 0 1 3 3v12.467a3 3 0 0 1-3 3z" style="" fill="#d8d8ff" data-original="#d8d8ff"></path><path d="M100.145 175.104H87.678a3 3 0 0 1-3-3v-12.467a3 3 0 0 1 3-3h12.467a3 3 0 0 1 3 3v12.467a3 3 0 0 1-3 3z" style="" fill="#ffc498" data-original="#ffc498"></path><path d="M126.748 175.104h-12.467a3 3 0 0 1-3-3v-12.467a3 3 0 0 1 3-3h12.467a3 3 0 0 1 3 3v12.467a3 3 0 0 1-3 3z" style="" fill="#ff6c6c" data-original="#ff6c6c"></path><path d="M158.293 165.871h44.34" style="stroke-width:10;stroke-linecap:round;stroke-linejoin:round;stroke-miterlimit:10;" fill="none" stroke="#b2b2ff" stroke-width="10" stroke-linecap="round" stroke-linejoin="round" stroke-miterlimit="10" data-original="#b2b2ff"></path><path d="M188.757 327.636c-.416-1.483-2.154-2.161-3.446-1.322-2.382 1.549-4.491 2.322-6.327 2.322-2.139 0-3.576-.821-4.316-2.466-.74-1.641-1.109-4.439-1.109-8.384v-62.474c0-9.04-.617-16.191-1.849-21.454-1.233-5.26-3.661-9.698-7.275-13.316-3.946-3.945-8.878-6.739-14.796-8.384-12.852-3.573-26.577-3.494-39.593-.837-10.807 2.205-22.768 6.274-29.332 15.757-8.379 12.106-.678 30.702 14.671 30.702 19.074.001 26.567-24.57 10.106-34.765 4.478-1.796 13.002-4.277 21.455-1.63 6.575 2.059 11.086 8.195 11.102 15.085v19.338c0 4.439-2.096 7.934-6.288 10.481-17.339 10.534-41.636 11.343-54.992 28.112-6.64 8.337-7.66 20.573-3.854 30.429 4.864 12.595 16.485 17.535 29.377 17.535 15.944 0 28.028-6.658 36.25-19.975.162 6.084 2.053 10.935 5.671 14.55 3.615 3.618 9.945 5.425 18.988 5.425 10.092 0 18.719-2.712 25.878-8.139a2.312 2.312 0 0 0 .833-2.465l-1.154-4.125zm-50.709-20.369c-4.77 6.743-9.008 10.632-16.029 12.127-5.021 1.069-16.029-.69-16.029-12.542 0-11.385 13.07-16.771 19.481-20.883 6.412-3.945 10.604-7.56 12.577-10.85v32.148zM293.223 373.988H470.07c5.523 0 10-4.477 10-10V148.012c0-5.523-4.477-10-10-10H293.223c-5.523 0-10 4.477-10 10v215.976c0 5.523 4.477 10 10 10z" style="" fill="#ffffff" data-original="#ffffff"></path><path d="M283.223 190.317v-42.305c0-5.523 4.477-10 10-10H470.07c5.523 0 10 4.477 10 10v42.305H283.223z" style="" fill="#9393ff" data-original="#9393ff"></path><path d="M480.07 304.443V148.012c0-5.523-4.477-10-10-10H293.223c-5.523 0-10 4.477-10 10v215.976c0 5.523 4.477 10 10 10H470.07c5.523 0 10-4.477 10-10v-31.161" style="stroke-width:10;stroke-linecap:round;stroke-linejoin:round;stroke-miterlimit:10;" fill="none" stroke="#0000cb" stroke-width="10" stroke-linecap="round" stroke-linejoin="round" stroke-miterlimit="10" data-original="#0000cb"></path><path d="M438.459 175.104h12.467a3 3 0 0 0 3-3v-12.467a3 3 0 0 0-3-3h-12.467a3 3 0 0 0-3 3v12.467a3 3 0 0 0 3 3z" style="" fill="#d8d8ff" data-original="#d8d8ff"></path><path d="M411.855 175.104h12.467a3 3 0 0 0 3-3v-12.467a3 3 0 0 0-3-3h-12.467a3 3 0 0 0-3 3v12.467a3 3 0 0 0 3 3z" style="" fill="#ffc498" data-original="#ffc498"></path><path d="M385.252 175.104h12.467a3 3 0 0 0 3-3v-12.467a3 3 0 0 0-3-3h-12.467a3 3 0 0 0-3 3v12.467a3 3 0 0 0 3 3z" style="" fill="#ff6c6c" data-original="#ff6c6c"></path><path d="M353.707 165.871h-44.34" style="stroke-width:10;stroke-linecap:round;stroke-linejoin:round;stroke-miterlimit:10;" fill="none" stroke="#b2b2ff" stroke-width="10" stroke-linecap="round" stroke-linejoin="round" stroke-miterlimit="10" data-original="#b2b2ff"></path><path d="M322.087 331.758a2.312 2.312 0 0 0 .833 2.465c7.16 5.427 15.787 8.139 25.878 8.139 9.043 0 15.374-1.807 18.988-5.425 3.618-3.614 5.51-8.466 5.671-14.55 8.223 13.316 20.307 19.975 36.25 19.975 12.892 0 24.512-4.94 29.377-17.535 3.807-9.856 2.787-22.092-3.854-30.429-13.356-16.769-37.653-17.578-54.992-28.112-4.192-2.547-6.288-6.042-6.288-10.481v-19.338c.016-6.89 4.527-13.026 11.102-15.085 8.453-2.647 16.976-.166 21.455 1.63-16.461 10.196-8.967 34.766 10.106 34.765 15.349-.001 23.051-18.596 14.671-30.702-6.564-9.483-18.525-13.551-29.332-15.757-13.016-2.656-26.74-2.735-39.593.837-5.919 1.645-10.851 4.439-14.796 8.384-3.614 3.618-6.042 8.057-7.275 13.316-1.232 5.263-1.849 12.415-1.849 21.454v62.474c0 3.945-.37 6.743-1.109 8.384-.74 1.645-2.177 2.466-4.316 2.466-1.835 0-3.944-.773-6.327-2.322-1.292-.84-3.03-.162-3.446 1.322l-1.154 4.125zm51.865-56.639c1.973 3.291 6.165 6.905 12.577 10.85 6.411 4.111 19.481 9.498 19.481 20.883 0 11.852-11.008 13.612-16.029 12.542-7.022-1.495-11.259-5.385-16.029-12.127v-32.148zM182.367 407.505v53.48c0 3.379 3.93 5.236 6.54 3.09l32.532-26.74a4 4 0 0 0 0-6.18l-32.532-26.74c-2.61-2.146-6.54-.289-6.54 3.09z" style="" fill="#4d4dff" data-original="#4d4dff"></path><path d="M329.633 407.505v53.48c0 3.379-3.93 5.236-6.54 3.09l-32.532-26.74a4 4 0 0 1 0-6.18l32.532-26.74c2.61-2.146 6.54-.289 6.54 3.09z" style="" fill="#b2b2ff" data-original="#b2b2ff"></path><path d="M182.367 407.505v53.48c0 3.379 3.93 5.236 6.54 3.09l32.532-26.74a4 4 0 0 0 0-6.18l-32.532-26.74c-2.61-2.146-6.54-.289-6.54 3.09zM329.633 407.505v53.48c0 3.379-3.93 5.236-6.54 3.09l-32.532-26.74a4 4 0 0 1 0-6.18l32.532-26.74c2.61-2.146 6.54-.289 6.54 3.09z" style="stroke-width:10;stroke-linecap:round;stroke-linejoin:round;stroke-miterlimit:10;" fill="none" stroke="#0000cb" stroke-width="10" stroke-linecap="round" stroke-linejoin="round" stroke-miterlimit="10" data-original="#0000cb"></path><path d="M182.367 51.015v53.48c0 3.379 3.93 5.236 6.54 3.09l32.532-26.74a4 4 0 0 0 0-6.18l-32.532-26.74c-2.61-2.145-6.54-.289-6.54 3.09z" style="" fill="#4d4dff" data-original="#4d4dff"></path><path d="M329.633 51.015v53.48c0 3.379-3.93 5.236-6.54 3.09l-32.532-26.74a4 4 0 0 1 0-6.18l32.532-26.74c2.61-2.145 6.54-.289 6.54 3.09z" style="" fill="#b2b2ff" data-original="#b2b2ff"></path><path d="M182.367 51.015v53.48c0 3.379 3.93 5.236 6.54 3.09l32.532-26.74a4 4 0 0 0 0-6.18l-32.532-26.74c-2.61-2.145-6.54-.289-6.54 3.09zM329.633 51.015v53.48c0 3.379-3.93 5.236-6.54 3.09l-32.532-26.74a4 4 0 0 1 0-6.18l32.532-26.74c2.61-2.145 6.54-.289 6.54 3.09z" style="stroke-width:10;stroke-linecap:round;stroke-linejoin:round;stroke-miterlimit:10;" fill="none" stroke="#0000cb" stroke-width="10" stroke-linecap="round" stroke-linejoin="round" stroke-miterlimit="10" data-original="#0000cb"></path><circle cx="389.981" cy="426.38" r="10" style="stroke-width:10;stroke-linecap:round;stroke-linejoin:round;stroke-miterlimit:10;" fill="none" stroke="#8282ff" stroke-width="10" stroke-linecap="round" stroke-linejoin="round" stroke-miterlimit="10" data-original="#8282ff"></circle><circle cx="124.52" cy="424.889" r="10" style="stroke-width:10;stroke-linecap:round;stroke-linejoin:round;stroke-miterlimit:10;" fill="none" stroke="#ff6c6c" stroke-width="10" stroke-linecap="round" stroke-linejoin="round" stroke-miterlimit="10" data-original="#ff6c6c"></circle><circle cx="399.981" cy="82.549" r="10" style="stroke-width:10;stroke-linecap:round;stroke-linejoin:round;stroke-miterlimit:10;" fill="none" stroke="#ff6c6c" stroke-width="10" stroke-linecap="round" stroke-linejoin="round" stroke-miterlimit="10" data-original="#ff6c6c"></circle><path d="m134.52 87.612-10 10M431.715 458.912l-10 10" style="stroke-width:10;stroke-linecap:round;stroke-linejoin:round;stroke-miterlimit:10;" fill="none" stroke="#ff9c33" stroke-width="10" stroke-linecap="round" stroke-linejoin="round" stroke-miterlimit="10" data-original="#ff9c33"></path></g></svg>