<svg xmlns="http://www.w3.org/2000/svg" version="1.1" xmlns:xlink="http://www.w3.org/1999/xlink" width="512" height="512" x="0" y="0" viewBox="0 0 512 512" style="enable-background:new 0 0 512 512" xml:space="preserve" class=""><g><linearGradient id="a" x1="45.274" x2="466.726" y1="256" y2="256" gradientUnits="userSpaceOnUse"><stop offset="0" stop-color="#ffb3b3"></stop><stop offset=".992" stop-color="#ffe8dc" stop-opacity="0"></stop></linearGradient><linearGradient id="b" x1="249.302" x2="249.302" y1="448.409" y2="43.591" gradientUnits="userSpaceOnUse"><stop offset="0" stop-color="#ff4d4d" stop-opacity=".4"></stop><stop offset="1" stop-color="#ff4d4d" stop-opacity="0"></stop></linearGradient><path fill="url(#a)" d="M97.146 38.232C-38.182 157.77 135.977 273.641 119.389 404.26c-7.375 58.072 16.054 113.588 92.705 107.244 93.413-7.732 59.504-97.209 79.066-156.778 33.66-102.501 240.73-78.56 154.895-236.448C391.277 17.52 190.288-44.043 97.146 38.232z" opacity="1" data-original="url(#a)" class=""></path><path fill="#9494ff" d="M348.882 448.409H149.721c-11.046 0-20-8.954-20-20V63.591c0-11.046 8.954-20 20-20h199.161c11.046 0 20 8.954 20 20v364.817c0 11.046-8.954 20.001-20 20.001z" opacity="1" data-original="#9494ff"></path><path fill="#d9d9ff" d="M368.882 118v310.41c0 11.04-8.95 20-20 20h-199.16c-11.05 0-20-8.96-20-20V118z" opacity="1" data-original="#d9d9ff"></path><path fill="#b3b3ff" d="M368.882 125.26v114.4h-32.54l-10.86 15.97c-1.87 2.75-5.94 2.73-7.78-.06l-10.51-15.91h-31.69a4.69 4.69 0 0 1-4.69-4.69V129.95c0-2.59 2.1-4.69 4.69-4.69zM232.181 260.68v63.03c0 2.59-2.1 4.69-4.69 4.69h-31.68l-10.51 15.91c-1.84 2.78-5.91 2.81-7.79.05l-10.85-15.96h-36.94v-72.41h97.77c2.59 0 4.69 2.1 4.69 4.69z" opacity="1" data-original="#b3b3ff"></path><path fill="#9494ff" d="M129.721 391.667v36.742c0 11.046 8.954 20 20 20h199.161c11.046 0 20-8.954 20-20v-36.742z" opacity="1" data-original="#9494ff"></path><path fill="#8383ff" d="M368.882 301.26v114.4h-33.41l-10.85 15.97c-1.88 2.75-5.95 2.73-7.79-.06l-10.51-15.91h-31.68a4.69 4.69 0 0 1-4.69-4.69V305.95c0-2.59 2.1-4.69 4.69-4.69z" opacity="1" data-original="#8383ff"></path><path fill="#2c27ff" d="m311.988 64.048 8.443-20.457H175.173l8.443 20.457a10 10 0 0 0 9.244 6.185h109.885a10 10 0 0 0 9.243-6.185z" opacity="1" data-original="#2c27ff"></path><path fill="#ffffff" d="M170.88 93.63h-13.52a5 5 0 1 1 0-10h13.52a5 5 0 1 1 0 10zM194.541 93.63h-4.52a5 5 0 1 1 0-10h4.52a5 5 0 1 1 0 10zM234.523 93.63h-4.52a5 5 0 1 1 0-10h4.52a5 5 0 1 1 0 10zM286.602 412.34v10.46c0 2.77-2.23 5-5 5h-118.3c-2.76 0-5-2.23-5-5v-10.46c0-2.76 2.24-5 5-5h118.3c2.77 0 5 2.24 5 5z" opacity="1" data-original="#ffffff" class=""></path><path fill="#ebebff" d="M286.602 412.34v3.32h-11.96a4.69 4.69 0 0 1-4.69-4.69v-3.63h11.65c2.77 0 5 2.24 5 5z" opacity="1" data-original="#ebebff"></path><path fill="#8383ff" d="M203.638 212.799h23.935a4.69 4.69 0 0 0 0-9.378h-23.935a4.69 4.69 0 0 0 0 9.378zM274.638 259.35h23.935a4.69 4.69 0 0 0 0-9.379h-23.935a4.69 4.69 0 0 0 0 9.379z" opacity="1" data-original="#8383ff"></path><path fill="url(#b)" d="M348.882 448.409H149.721c-11.046 0-20-8.954-20-20V63.591c0-11.046 8.954-20 20-20h199.161c11.046 0 20 8.954 20 20v364.817c0 11.046-8.954 20.001-20 20.001z" opacity="1" data-original="url(#b)" class=""></path><path fill="#ffffff" d="M232.181 236.68v63.03c0 2.59-2.1 4.69-4.69 4.69h-31.68l-10.51 15.91c-1.84 2.78-5.91 2.81-7.79.05l-10.85-15.96h-94.02a4.69 4.69 0 0 1-4.69-4.69v-63.03c0-2.58 2.1-4.69 4.69-4.69h154.85c2.59 0 4.69 2.11 4.69 4.69z" opacity="1" data-original="#ffffff" class=""></path><path fill="#fff3ee" d="M108.841 252.34c0 22.58-18.31 40.89-40.89 40.89v-56.55c0-2.58 2.1-4.69 4.69-4.69h30.79a40.73 40.73 0 0 1 5.41 20.35z" opacity="1" data-original="#fff3ee"></path><path fill="#ff9d33" d="M206.233 264.04h-52.631a4.69 4.69 0 0 1 0-9.379h52.631a4.69 4.69 0 0 1 0 9.379zM206.233 281.296h-96.905a4.69 4.69 0 0 1 0-9.379h96.905a4.69 4.69 0 0 1 0 9.379z" opacity="1" data-original="#ff9d33"></path><circle cx="67.949" cy="228.336" r="40.897" fill="#ff9d33" transform="rotate(-76.7 67.975 228.398)" opacity="1" data-original="#ff9d33"></circle><path fill="#ffffff" d="M84.562 221.723c0-9.161-7.453-16.613-16.613-16.613-9.161 0-16.613 7.453-16.613 16.613 0 4.518 1.818 8.615 4.754 11.613-2.936 2.998-4.754 7.095-4.754 11.613a5 5 0 0 0 10 0c0-3.646 2.967-6.613 6.613-6.613s6.613 2.967 6.613 6.613a5 5 0 0 0 10 0c0-4.518-1.818-8.615-4.755-11.613 2.937-2.998 4.755-7.095 4.755-11.613zm-16.613-6.614c3.646 0 6.613 2.967 6.613 6.613s-2.967 6.613-6.613 6.613-6.613-2.967-6.613-6.613 2.966-6.613 6.613-6.613zM444.051 105.95v105.02c0 2.59-2.1 4.69-4.69 4.69h-103.02l-10.86 15.97c-1.87 2.76-5.94 2.73-7.78-.06l-10.51-15.91h-31.69a4.69 4.69 0 0 1-4.69-4.69V105.95c0-2.59 2.1-4.69 4.69-4.69h163.86c2.59 0 4.69 2.1 4.69 4.69z" opacity="1" data-original="#ffffff" class=""></path><path fill="#ffeeee" d="M444.051 105.95V175c-22.59 0-40.9-18.31-40.9-40.9 0-13.46 6.5-25.4 16.53-32.84h19.68c2.59 0 4.69 2.1 4.69 4.69z" opacity="1" data-original="#ffeeee" class=""></path><path fill="#8383ff" d="M302.767 133.305h43.631a4.69 4.69 0 0 0 0-9.379h-43.631a4.69 4.69 0 0 0 0 9.379zM302.767 150.561h87.905a4.69 4.69 0 0 0 0-9.379h-87.905a4.69 4.69 0 0 0 0 9.379zM302.767 189.553h23.935a4.69 4.69 0 0 0 0-9.378h-23.935a4.69 4.69 0 0 0 0 9.378z" opacity="1" data-original="#8383ff"></path><circle cx="444.051" cy="110.099" r="40.897" fill="#ff6c6c" transform="rotate(-76.7 444.18 110.116)" opacity="1" data-original="#ff6c6c" class=""></circle><path fill="#ffffff" d="M460.665 103.486c0-9.161-7.453-16.613-16.613-16.613-9.161 0-16.613 7.453-16.613 16.613 0 4.518 1.818 8.615 4.754 11.613-2.936 2.998-4.754 7.095-4.754 11.613a5 5 0 0 0 10 0 6.621 6.621 0 0 1 6.613-6.613 6.62 6.62 0 0 1 6.613 6.613 5 5 0 0 0 10 0c0-4.518-1.818-8.615-4.755-11.613 2.937-2.998 4.755-7.096 4.755-11.613zm-16.614-6.614c3.647 0 6.613 2.967 6.613 6.613s-2.967 6.613-6.613 6.613-6.613-2.967-6.613-6.613 2.967-6.613 6.613-6.613zM443.181 281.95v105.02c0 2.59-2.1 4.69-4.69 4.69h-103.02l-10.85 15.97c-1.88 2.75-5.95 2.73-7.79-.06l-10.51-15.91h-31.68a4.69 4.69 0 0 1-4.69-4.69V281.95c0-2.59 2.1-4.69 4.69-4.69h163.85c2.59 0 4.69 2.1 4.69 4.69z" opacity="1" data-original="#ffffff" class=""></path><path fill="#ffeeee" d="M443.181 281.95v69.04c-22.58 0-40.89-18.31-40.89-40.89 0-13.46 6.5-25.4 16.53-32.84h19.67c2.59 0 4.69 2.1 4.69 4.69z" opacity="1" data-original="#ffeeee" class=""></path><circle cx="443.185" cy="286.097" r="40.897" fill="#ff6c6c" transform="rotate(-80.8 443.124 286.153)" opacity="1" data-original="#ff6c6c" class=""></circle><path fill="#ffffff" d="M459.798 279.484c0-9.161-7.453-16.613-16.613-16.613-9.161 0-16.613 7.453-16.613 16.613 0 4.518 1.818 8.615 4.755 11.613-2.936 2.998-4.755 7.095-4.755 11.613a5 5 0 0 0 10 0c0-3.646 2.967-6.613 6.613-6.613s6.613 2.967 6.613 6.613a5 5 0 0 0 10 0c0-4.518-1.818-8.615-4.754-11.613 2.936-2.998 4.754-7.095 4.754-11.613zm-16.613-6.613a6.621 6.621 0 0 1 6.613 6.613 6.62 6.62 0 0 1-6.613 6.613 6.62 6.62 0 0 1-6.613-6.613 6.62 6.62 0 0 1 6.613-6.613z" opacity="1" data-original="#ffffff" class=""></path><path fill="#ffab66" d="M379.238 368.482h-85.727a2.178 2.178 0 0 1-2.178-2.178v-58.11c0-1.94 2.346-2.912 3.718-1.54l10.373 10.373 9.632-9.639a2.178 2.178 0 0 1 3.08-.001z" opacity="1" data-original="#ffab66" class=""></path><path fill="#ff6c6c" d="M403.557 324.686v41.618a2.178 2.178 0 0 1-2.178 2.178H293.511a2.178 2.178 0 0 1-2.178-2.178v-16.087l15.702-15.702c.85-.85 2.229-.85 3.079-.001l6.489 6.483 20.035-20.035c.85-.85 2.229-.85 3.08 0l6.228 6.228 28.521-28.521a2.178 2.178 0 0 1 3.08 0z" opacity="1" data-original="#ff6c6c" class=""></path><path fill="#ffab66" d="M430.698 419.43h-3v-3c0-2.762-2.238-5-5-5s-5 2.238-5 5v3h-3c-2.762 0-5 2.238-5 5s2.238 5 5 5h3v3c0 2.762 2.238 5 5 5s5-2.238 5-5v-3h3c2.762 0 5-2.238 5-5s-2.238-5-5-5z" opacity="1" data-original="#ffab66" class=""></path><path fill="#6c6cff" d="M72.401 95.769h-3v-3c0-2.762-2.238-5-5-5s-5 2.238-5 5v3h-3c-2.762 0-5 2.238-5 5s2.238 5 5 5h3v3c0 2.762 2.238 5 5 5s5-2.238 5-5v-3h3c2.762 0 5-2.238 5-5s-2.238-5-5-5z" opacity="1" data-original="#6c6cff"></path><path fill="#ff6c6c" d="M100.638 135.978h-3v-3c0-2.762-2.238-5-5-5s-5 2.238-5 5v3h-3c-2.762 0-5 2.238-5 5s2.238 5 5 5h3v3c0 2.762 2.238 5 5 5s5-2.238 5-5v-3h3a5 5 0 1 0 0-10zM411.558 52.592a4.98 4.98 0 0 1-3.535-1.465l-4.465-4.464-4.465 4.464a4.998 4.998 0 0 1-7.07 0 4.998 4.998 0 0 1 0-7.07l8-8a4.998 4.998 0 0 1 7.07 0l8 8a4.998 4.998 0 0 1-3.535 8.535z" opacity="1" data-original="#ff6c6c" class=""></path><path fill="#ffab66" d="M88.401 356.467a4.98 4.98 0 0 1-3.535-1.465l-4.465-4.464-4.465 4.464a4.998 4.998 0 0 1-7.07 0 4.998 4.998 0 0 1 0-7.07l8-8a4.998 4.998 0 0 1 7.07 0l8 8a4.998 4.998 0 0 1-3.535 8.535z" opacity="1" data-original="#ffab66" class=""></path></g></svg>