<svg xmlns="http://www.w3.org/2000/svg" version="1.1" xmlns:xlink="http://www.w3.org/1999/xlink" width="512" height="512" x="0" y="0" viewBox="0 0 50 50" style="enable-background:new 0 0 512 512" xml:space="preserve" class=""><g><path fill="#f44336" d="M25 2C13.56 2 6.25 14.21 11.67 24.29l12.45 23.18c.38.71 1.38.71 1.76 0l12.45-23.18c1.25-2.33 1.82-4.77 1.82-7.15C40.15 9.22 33.8 2 25 2zm-1.52 21.31c-2.42-.54-4.38-2.49-4.92-4.92a6.62 6.62 0 0 1 7.96-7.94c2.42.54 4.38 2.5 4.92 4.92 1.07 4.82-3.13 9.01-7.96 7.94z" opacity="1" data-original="#f44336"></path></g></svg>