<svg xmlns="http://www.w3.org/2000/svg" version="1.1" xmlns:xlink="http://www.w3.org/1999/xlink" width="512" height="512" x="0" y="0" viewBox="0 0 512 512" style="enable-background:new 0 0 512 512" xml:space="preserve" class=""><g><linearGradient id="a" x1="98.063" x2="478.912" y1="475.453" y2="94.605" gradientUnits="userSpaceOnUse"><stop offset="0" style="stop-color:#FFD6D6;stop-opacity:0" stop-color="#ffd6d6;stop-opacity:0"></stop><stop offset=".998" style="stop-color:#FFB0B0" stop-color="#ffb0b0"></stop></linearGradient><path d="M502.768 310.452c-27.409-77.537-64.708-44.196-66.154-129.775-1.677-99.267 13.336-131.874-40.007-162.99-103.76-60.527-508.04 181.421-367.114 385.555 110.776 160.462 551.436 128.322 473.275-92.79z" style="fill:url(#a);" fill=""></path><path d="M63.221 306.877v69.339c0 5.52 4.48 10 10 10h118.151v31.695h-17.371a5 5 0 0 0-5 5v16.673a5 5 0 0 0 5 5h118.087a5 5 0 0 0 5-5v-16.673a5 5 0 0 0-5-5h-17.371v-31.695h118.154c5.52 0 10-4.48 10-10V208.733h30.913c8.284 0 15-6.716 15-15v-61.826c0-8.284-6.716-15-15-15h-61.826c-8.284 0-15 6.716-15 15v61.826L63.221 306.877z" style="opacity:0.1;" fill="#0000c9" data-original="#0000c9"></path><path d="M191.374 345.955h83.344v59.293h-83.344z" style="" fill="#8181ff" data-original="#8181ff"></path><path d="M191.374 345.955h83.344v59.293h-83.344z" style="stroke-width:10;stroke-linecap:round;stroke-linejoin:round;stroke-miterlimit:10;" fill="none" stroke="#0000c9" stroke-width="10" stroke-linecap="round" stroke-linejoin="round" stroke-miterlimit="10" data-original="#0000c9"></path><path d="M402.876 146.812v203.4c0 5.52-4.48 10-10 10H73.216c-5.52 0-10-4.48-10-10v-203.4c0-5.52 4.48-10 10-10h319.66c5.52 0 10 4.48 10 10z" style="" fill="#6c6cff" data-original="#6c6cff"></path><path d="M392.876 136.812h-35.918v56.921c0 8.284 6.716 15 15 15h30.918v-61.921c0-5.52-4.48-10-10-10z" style="" fill="#4d4dff" data-original="#4d4dff"></path><path d="M392.872 360.211H73.22c-5.523 0-10-4.477-10-10v-21.418h339.652v21.418c0 5.523-4.477 10-10 10z" style="" fill="#b1b1ff" data-original="#b1b1ff"></path><path d="M332.541 136.821H73.22c-5.523 0-10 4.477-10 10v203.391c0 5.523 4.477 10 10 10h319.652c5.523 0 10-4.477 10-10V210.073" style="stroke-width:10;stroke-linecap:round;stroke-linejoin:round;stroke-miterlimit:10;" fill="none" stroke="#0000c9" stroke-width="10" stroke-linecap="round" stroke-linejoin="round" stroke-miterlimit="10" data-original="#0000c9"></path><path d="M292.089 418.584H174.003a5 5 0 0 1-5-5v-12.673a5 5 0 0 1 5-5H292.09a5 5 0 0 1 5 5v12.673a5 5 0 0 1-5.001 5z" style="" fill="#b1b1ff" data-original="#b1b1ff"></path><path d="M292.089 418.584H174.003a5 5 0 0 1-5-5v-12.673a5 5 0 0 1 5-5H292.09a5 5 0 0 1 5 5v12.673a5 5 0 0 1-5.001 5z" style="stroke-width:10;stroke-linecap:round;stroke-linejoin:round;stroke-miterlimit:10;" fill="none" stroke="#0000c9" stroke-width="10" stroke-linecap="round" stroke-linejoin="round" stroke-miterlimit="10" data-original="#0000c9"></path><path d="M433.784 182.733h-61.826c-8.284 0-15-6.716-15-15v-61.826c0-8.284 6.716-15 15-15h61.826c8.284 0 15 6.716 15 15v61.826c0 8.285-6.716 15-15 15z" style="" fill="#8181ff" data-original="#8181ff"></path><path d="M368.958 149.422v-25.203c0-11.77 9.541-21.312 21.311-21.312h25.203c11.77 0 21.312 9.541 21.312 21.312v25.203c0 11.77-9.542 21.312-21.312 21.312H390.27c-11.77-.001-21.312-9.542-21.312-21.312z" style="" fill="#ffffff" data-original="#ffffff"></path><path d="M433.784 182.733h-61.826c-8.284 0-15-6.716-15-15v-61.826c0-8.284 6.716-15 15-15h61.826c8.284 0 15 6.716 15 15v61.826c0 8.285-6.716 15-15 15z" style="stroke-width:10;stroke-linecap:round;stroke-linejoin:round;stroke-miterlimit:10;" fill="none" stroke="#0000c9" stroke-width="10" stroke-linecap="round" stroke-linejoin="round" stroke-miterlimit="10" data-original="#0000c9"></path><path d="m390.371 136.504 8.544 8.544 16.456-16.455" style="stroke-width:10;stroke-linecap:round;stroke-linejoin:round;stroke-miterlimit:10;" fill="none" stroke="#9292ff" stroke-width="10" stroke-linecap="round" stroke-linejoin="round" stroke-miterlimit="10" data-original="#9292ff"></path><path d="m310.941 86.408 9 9 9-9" style="stroke-width:10;stroke-linecap:round;stroke-linejoin:round;stroke-miterlimit:10;" fill="none" stroke="#6c6cff" stroke-width="10" stroke-linecap="round" stroke-linejoin="round" stroke-miterlimit="10" data-original="#6c6cff"></path><path d="m103.861 400.748 9 9 9-9" style="stroke-width:10;stroke-linecap:round;stroke-linejoin:round;stroke-miterlimit:10;" fill="none" stroke="#ff9b33" stroke-width="10" stroke-linecap="round" stroke-linejoin="round" stroke-miterlimit="10" data-original="#ff9b33"></path><path d="m373.63 55.849 9 9 9-9" style="stroke-width:10;stroke-linecap:round;stroke-linejoin:round;stroke-miterlimit:10;" fill="none" stroke="#ff6c6c" stroke-width="10" stroke-linecap="round" stroke-linejoin="round" stroke-miterlimit="10" data-original="#ff6c6c"></path><path d="M330.069 418.584h16.48M346.549 435.064h-16.48" style="stroke-width:10;stroke-linecap:round;stroke-linejoin:round;stroke-miterlimit:10;" fill="none" stroke="#6c6cff" stroke-width="10" stroke-linecap="round" stroke-linejoin="round" stroke-miterlimit="10" data-original="#6c6cff"></path><path d="M374.39 397.008h16.479M390.869 413.488H374.39" style="stroke-width:10;stroke-linecap:round;stroke-linejoin:round;stroke-miterlimit:10;" fill="none" stroke="#ff6c6c" stroke-width="10" stroke-linecap="round" stroke-linejoin="round" stroke-miterlimit="10" data-original="#ff6c6c"></path><path d="M90.283 161.443h7.705M118.008 161.443h7.706M145.733 161.443h7.706M173.458 161.443h7.706M294.964 161.443h37.829" style="stroke-width:10;stroke-linecap:round;stroke-linejoin:round;stroke-miterlimit:10;" fill="none" stroke="#b1b1ff" stroke-width="10" stroke-linecap="round" stroke-linejoin="round" stroke-miterlimit="10" data-original="#b1b1ff"></path><path d="M209.64 187.13v86.78c0 2.76-2.23 5-5 5h-86.78c-2.76 0-5-2.24-5-5v-86.78c0-2.76 2.24-5 5-5h29.69l13.7 12.62 13.7-12.62h29.69c2.77 0 5 2.24 5 5z" style="" fill="#ffa966" data-original="#ffa966"></path><path d="M174.952 227.749v-9.896h-27.399v9.896a2.815 2.815 0 0 0 2.815 2.815h21.768a2.816 2.816 0 0 0 2.816-2.815z" style="" fill="#ff9b33" data-original="#ff9b33"></path><path d="M174.952 217.853V182.13h-27.399v35.722a2.815 2.815 0 0 0 2.815 2.815h21.768a2.814 2.814 0 0 0 2.816-2.814z" style="" fill="#ffd4b9" data-original="#ffd4b9"></path><path d="M130.451 260.921h17.134" style="stroke-width:10;stroke-linecap:round;stroke-linejoin:round;stroke-miterlimit:10;" fill="none" stroke="#9292ff" stroke-width="10" stroke-linecap="round" stroke-linejoin="round" stroke-miterlimit="10" data-original="#9292ff"></path><path d="M197.242 205.932h-9.891a2.11 2.11 0 0 1-2.111-2.111v-9.891a2.11 2.11 0 0 1 2.111-2.111h9.891a2.11 2.11 0 0 1 2.111 2.111v9.891a2.11 2.11 0 0 1-2.111 2.111zM197.242 224.91h-9.891a2.11 2.11 0 0 1-2.111-2.111v-9.891a2.11 2.11 0 0 1 2.111-2.111h9.891a2.11 2.11 0 0 1 2.111 2.111v9.891a2.111 2.111 0 0 1-2.111 2.111z" style="" fill="#ff6c6c" data-original="#ff6c6c"></path><path d="M338.682 296.909H186.323c-5.387 0-9.753-4.367-9.753-9.753v-30.54c0-5.387 4.367-9.753 9.753-9.753h152.359c5.387 0 9.753 4.367 9.753 9.753v30.54a9.752 9.752 0 0 1-9.753 9.753z" style="" fill="#ffffff" data-original="#ffffff"></path><path d="m208.63 265.386-13 13M195.63 265.386l13 13M238.816 265.386l-13 13M225.816 265.386l13 13M269.003 265.386l-13 13M256.003 265.386l13 13M299.189 265.386l-13 13M286.189 265.386l13 13M329.375 265.386l-13 13M316.375 265.386l13 13" style="stroke-width:10;stroke-linecap:round;stroke-linejoin:round;stroke-miterlimit:10;" fill="none" stroke="#9292ff" stroke-width="10" stroke-linecap="round" stroke-linejoin="round" stroke-miterlimit="10" data-original="#9292ff"></path><path d="M116.607 292.684h48.398M116.607 309.701h29.126" style="stroke-width:10;stroke-linecap:round;stroke-linejoin:round;stroke-miterlimit:10;" fill="none" stroke="#b1b1ff" stroke-width="10" stroke-linecap="round" stroke-linejoin="round" stroke-miterlimit="10" data-original="#b1b1ff"></path><path d="M227.058 191.396h55.626M227.058 208.733h111.251M227.058 226.071h111.251" style="stroke-width:10;stroke-linecap:round;stroke-linejoin:round;stroke-miterlimit:10;" fill="none" stroke="#4d4dff" stroke-width="10" stroke-linecap="round" stroke-linejoin="round" stroke-miterlimit="10" data-original="#4d4dff"></path></g></svg>