<svg xmlns="http://www.w3.org/2000/svg" version="1.1" xmlns:xlink="http://www.w3.org/1999/xlink" width="512" height="512" x="0" y="0" viewBox="0 0 512 512" style="enable-background:new 0 0 512 512" xml:space="preserve" class=""><g><path fill="#49b1f7" d="M471.374 383.884c18.893-34.74 29.628-74.559 29.628-116.885 0-135.311-109.691-245.002-245.002-245.002S10.998 131.688 10.998 266.999c0 42.327 10.735 82.146 29.628 116.886z" opacity="1" data-original="#49b1f7"></path><path fill="#ffaa7b" d="M220.358 351.906c22.501 11.467 49.138 11.285 71.284 0 15.724-8.013 33.842-18.828 50.079-35.971a218.474 218.474 0 0 0-20.105-5.663c-10.152-10.152-12.725-29.399-13.189-42.865-5.298 6.171-10.858 11.333-16.171 15.458-10.352 8.039-23.125 12.405-36.281 12.405s-25.93-4.366-36.282-12.405c-5.313-4.126-10.874-9.288-16.172-15.458-.464 13.466-3.037 32.713-13.19 42.865a218.704 218.704 0 0 0-20.064 5.65c16.24 17.151 34.363 27.969 50.091 35.984z" opacity="1" data-original="#ffaa7b"></path><path fill="#fc9460" d="M203.521 267.406c-.464 13.466-3.037 32.713-13.19 42.865a218.704 218.704 0 0 0-20.064 5.65c9.65 10.191 19.962 18.134 30.044 24.593 11.648-9.049 26.432-8.941 26.432-8.941 25.105 0 29.232-36.304 29.232-36.304-13.156 0-25.93-4.366-36.282-12.405-5.313-4.125-10.874-9.287-16.172-15.458z" opacity="1" data-original="#fc9460"></path><path fill="#d3dcfb" d="m273.3 341.533-12.144 19.113 22.029-5.913zM238.648 341.533l12.143 19.113-22.029-5.913z" opacity="1" data-original="#d3dcfb"></path><path fill="#88ce65" d="M436.908 350.166c-3.432-1.619-7.108-3.006-11.018-4.161l-64.339-22.407a224.818 224.818 0 0 0-23.447-8.854c-15.619 16.871-33.203 27.377-48.413 35.128-20.933 10.668-46.113 10.839-67.382 0-6.611-3.369-13.67-7.26-20.822-11.967-8.057 5.409-15.202 14.548-16.338 30.022-2.964.74-11.302 3.124-19.744 8.284-13.808 8.44-21.107 20.29-21.107 34.267v74.631C177.794 502.298 215.763 512 256 512c53.791 0 103.533-17.336 143.944-46.725v-45.722c0-31.859 28.498-53.58 45.42-64.679a71.566 71.566 0 0 0-8.456-4.708z" opacity="1" data-original="#88ce65" class=""></path><path fill="#6faf46" d="M145.799 485.863v-75.386c0-32.837 40.777-41.345 40.777-41.345.851-15.938 8.111-25.096 16.227-30.378-9.725-6.276-19.66-14.021-28.908-24.01a224.818 224.818 0 0 0-23.447 8.854L86.11 346.005c-3.909 1.154-7.586 2.542-11.018 4.161a71.66 71.66 0 0 0-8.457 4.708c16.922 11.099 45.42 32.82 45.42 64.679v45.722a245.087 245.087 0 0 0 33.744 20.588z" opacity="1" data-original="#6faf46"></path><path fill="#b4d667" d="M303.427 341.337c-4.708 2.803-9.322 5.286-13.736 7.535-20.933 10.668-46.112 10.839-67.382 0-4.43-2.258-9.062-4.751-13.787-7.566v25.864a360.9 360.9 0 0 0 4.085 2.116c27.396 13.961 59.827 13.74 86.789 0a386.285 386.285 0 0 0 4.031-2.087z" opacity="1" data-original="#b4d667"></path><path fill="#deeeff" d="M314.184 287.068a1.943 1.943 0 0 0-2.844 1.318c-1.711 8.38-9.135 34.779-36.704 50.447-2.715 1.543-3.365 5.166-1.311 7.518l27.858 31.907c5.784 6.662 16.433 5.464 20.608-2.309 7.058-13.14 16.891-33.14 24.169-54.642 1.303-3.85.376-8.106-2.37-11.103a115.805 115.805 0 0 0-29.406-23.136zM237.312 338.832a75.2 75.2 0 0 1-12.259-8.684c-7.387.504-36.627 4.546-39.764 36.452a427.51 427.51 0 0 0 4.868 9.348c4.175 7.772 14.824 8.97 20.608 2.309l27.858-31.907c2.054-2.352 1.404-5.975-1.311-7.518z" opacity="1" data-original="#deeeff"></path><path fill="#d3dcfb" d="M200.608 288.385a1.943 1.943 0 0 0-2.844-1.317 115.819 115.819 0 0 0-29.405 23.135c-2.746 2.996-3.673 7.253-2.37 11.103 6.115 18.066 14.028 35.054 20.589 47.821 2.025-37.843 40.166-37.554 40.166-37.554-18.985-15.558-24.669-35.999-26.136-43.188z" opacity="1" data-original="#d3dcfb"></path><path fill="#945230" d="M164.898 157.476h183.271c.325-13.205 2.527-48.157 16.328-73.055a13.739 13.739 0 0 0 .925-11.304c-5.008-13.962-19.966-46.602-52.588-55.308-1.738-.464-2.197-2.712-.783-3.823l4.889-3.841c2.216-1.742 1.365-5.28-1.403-5.813-24.068-4.642-104.003-15.75-128.833 35.307-1.482 3.047-4.275 5.241-7.555 6.09-7.225 1.87-20.22 7.506-28.69 24.395a13.82 13.82 0 0 0-.752 10.633c4.116 12.131 14.145 44.705 15.191 76.719z" opacity="1" data-original="#945230"></path><path fill="#753616" d="M246.903 76.772C217.631 32.163 268.833.018 268.833.018c-31.052.402-66.923 8.354-82.129 39.621-1.482 3.047-4.275 5.241-7.555 6.09-7.225 1.87-20.22 7.506-28.69 24.395a13.82 13.82 0 0 0-.752 10.633c4.116 12.131 14.145 44.705 15.191 76.719h42.66c27-21.871 56.739-54.196 39.345-80.704z" opacity="1" data-original="#753616"></path><path fill="#ffaa7b" d="M355.282 152.135c-4.103-3.76-13.276-1.854-16.81.448.774 4.821.818 9.753.149 14.623l-4.17 30.372c0 2.448-.077 4.85-.219 7.21 10.169 3.067 16.22-6.062 17.071-12.327a46.57 46.57 0 0 1 1.796-7.949c2.706-8.446 12.464-22.956 2.183-32.377z" opacity="1" data-original="#ffaa7b"></path><path fill="#fc9460" d="M156.77 152.135c4.103-3.76 13.276-1.854 16.81.448a49.656 49.656 0 0 0-.149 14.623l4.17 30.372c0 2.448.077 4.85.219 7.21-10.169 3.067-16.22-6.062-17.071-12.327a46.57 46.57 0 0 0-1.796-7.949c-2.705-8.446-12.463-22.956-2.183-32.377z" opacity="1" data-original="#fc9460"></path><path fill="#ffc7ab" d="M336.963 143.2c-.939-2.449-2.122-4.929-3.613-7.268-2.525-3.961-3.636-8.648-3.297-13.32.973-13.438.451-39.721-17.19-47.659-14.987-6.744-33.372-2.839-45.096 1.059a37.227 37.227 0 0 1-22.632.263c-13.358 10.252-13.672 33.335-12.769 45.626a21.905 21.905 0 0 1-3.35 13.381c-1.463 2.296-2.634 4.726-3.57 7.131-3.037 7.802-3.923 16.264-2.785 24.55l4.226 30.781c0 44.252 23.622 74.33 43.715 89.934 2.966 2.303 6.139 4.284 9.452 5.975a58.855 58.855 0 0 0 12.253-7.316c19.831-15.399 43.144-45.085 43.144-88.759l4.17-30.372c1.113-8.097.27-16.366-2.658-24.006z" opacity="1" data-original="#ffc7ab"></path><path fill="#ffaa7b" d="M270.745 286.337c-19.831-15.399-43.144-45.085-43.144-88.759L223.43 167.2c-1.123-8.177-.249-16.529 2.749-24.229.924-2.374 2.079-4.772 3.524-7.038a21.62 21.62 0 0 0 3.307-13.206c-.92-12.516-.562-36.369 13.894-45.955a36.802 36.802 0 0 1-2.617-.76c-11.724-3.898-30.109-7.803-45.096-1.059-17.692 7.96-18.166 34.371-17.181 47.774a21.613 21.613 0 0 1-3.307 13.206c-1.444 2.266-2.6 4.664-3.524 7.038-2.997 7.7-3.871 16.052-2.748 24.229l4.171 30.378c0 43.674 23.314 73.359 43.144 88.759 10.351 8.038 23.125 12.404 36.281 12.404a59.274 59.274 0 0 0 25.5-5.768 58.727 58.727 0 0 1-10.782-6.636z" opacity="1" data-original="#ffaa7b"></path><path fill="#b4d667" d="M444.333 354.24c-16.779 10.896-46.389 32.843-46.389 65.313v47.161c30.336-21.6 55.541-49.938 73.43-82.831-6.276-11.632-14.992-22.108-27.041-29.643z" opacity="1" data-original="#b4d667"></path><path fill="#88ce65" d="M67.667 354.24c-12.049 7.535-20.766 18.012-27.041 29.644 17.889 32.893 43.094 61.231 73.43 82.83v-47.161c0-32.47-29.61-54.417-46.389-65.313z" opacity="1" data-original="#88ce65" class=""></path><path fill="#73c3f9" d="M423.487 88.206c-23.26 17.194-52.201 46.18-39.932 82.497 19 56.244-67 91.713 29 132.478 38.384 16.3 60.687 33.306 73.645 47.851 9.572-26.211 14.803-54.51 14.803-84.034-.001-70.531-29.816-134.09-77.516-178.792zM88.513 88.206c23.26 17.194 52.201 46.18 39.932 82.497-19 56.244 67 91.713-29 132.478-38.384 16.3-60.687 33.306-73.645 47.851-9.572-26.211-14.803-54.51-14.803-84.034.001-70.531 29.816-134.09 77.516-178.792z" opacity="1" data-original="#73c3f9"></path><path fill="#945230" d="M312.171 232.577c-2.319-13.828-12.296-27.674-25.616-30.695l-20.359-5.981c-3.539-1.04-7.083.776-8.508 3.859a.717.717 0 0 1-1.307 0c-1.425-3.083-4.969-4.898-8.508-3.859l-20.359 5.981c-.685.155-1.359.347-2.025.558-1.963 3.709-5.046 11.109-2.939 18.037 1.184 3.896 3.844 7.024 7.876 9.359a45.824 45.824 0 0 1 11.448-4.195l3.637-.803c5.3-1.17 9.399-6.344 10.902-11.857.172-.633 1.072-.633 1.245 0 1.503 5.513 5.601 10.687 10.901 11.857l3.637.803a45.91 45.91 0 0 1 26.088 16.331c-1.341 5.962-5.546 15.022-18.578 19.627-8.744 3.089-18.286-2.41-19.406-11.512l-.042-.356a3.354 3.354 0 0 0-6.669 0l-.041.356c-.627 5.093-3.892 9.055-8.178 11.019-.935 4.798-2.129 15.782 3.5 26.173 2.883 5.323 7.15 9.703 12.73 13.115a47.818 47.818 0 0 0 16.088-4.873c20.375-10.373 47.462-28.396 56.126-74.757a62.956 62.956 0 0 0 1.075-11.567c-3.298 8.137-10.154 17.93-22.718 23.38z" opacity="1" data-original="#945230"></path><path fill="#753616" d="M263.978 300.044c-21.832-12.065-18.061-34.717-16.865-39.901a14.911 14.911 0 0 1-12.971 1.455c-12.031-4.251-17.206-12.302-19.431-18.205a45.984 45.984 0 0 1 17.327-14.371c-14.612-7.635-6.895-23.078-4.519-27.141l-.005.001c-13.583 3.08-23.696 17.417-25.751 31.513-13.897-5.241-21.131-15.636-24.6-24.2v.004c0 3.873.361 7.744 1.072 11.551 8.648 46.353 35.605 64.373 55.982 74.758a47.911 47.911 0 0 0 29.761 4.536z" opacity="1" data-original="#753616"></path></g></svg>