<svg xmlns="http://www.w3.org/2000/svg" version="1.1" xmlns:xlink="http://www.w3.org/1999/xlink" width="512" height="512" x="0" y="0" viewBox="0 0 512 512" style="enable-background:new 0 0 512 512" xml:space="preserve" class=""><g><path fill="#49b1f7" d="M473.004 380.801c17.871-34.007 27.998-72.719 27.998-113.803 0-135.311-109.691-245.002-245.002-245.002S10.998 131.687 10.998 266.998c0 41.084 10.127 79.796 27.998 113.803z" opacity="1" data-original="#49b1f7" class=""></path><path fill="#ff4155" d="M333.154 268.01c-15.183-10.196-40.374-21.6-77.164-21.6-37.13 0-62.452 11.62-77.592 21.891v.474a10.045 10.045 0 0 1 8.331.353c12.632 6.424 38.646 17.371 69.261 17.371s56.616-10.931 69.238-17.347c2.551-1.297 5.406-1.392 7.926-.498zM432.314 332.234c-3.535-1.696-7.332-3.143-11.378-4.342l-65.15-24.863a225.634 225.634 0 0 0-10.669-4.072c-10.604 13.476-38.943 41.913-89.128 41.913-9.29 0-17.828-.979-25.648-2.653.133.292.256.582.395.874-5.712.881-22.33 3.84-38.766 10.558-27.076 11.068-41.388 27.266-41.388 46.839v40.028h254.42v-43.197c0-29.421 20.371-47.517 35.053-56.741a71.664 71.664 0 0 0-7.741-4.344z" opacity="1" data-original="#ff4155"></path><path fill="#e80054" d="M152.083 436.517V396.49c0-46.26 80.91-56.205 80.91-56.205a65.365 65.365 0 0 1-.84-1.707c-35.485-7.008-56.481-28.429-65.287-39.614a225.357 225.357 0 0 0-10.627 4.055L91.02 327.905c-4.011 1.191-7.778 2.627-11.286 4.306a71.457 71.457 0 0 0-7.792 4.369c14.682 9.225 35.053 27.32 35.053 56.741v43.197h45.088z" opacity="1" data-original="#e80054"></path><path fill="#e80054" d="M150.583 434.517v53.68C182.513 503.447 218.254 512 256 512c56.063 0 107.716-18.844 149.003-50.524v-26.958h-254.42z" opacity="1" data-original="#e80054"></path><path fill="#cc0053" d="M152.083 434.517h-45.087v26.958a245.12 245.12 0 0 0 45.087 27.436v-54.394z" opacity="1" data-original="#cc0053"></path><path fill="#ffaa7b" d="M255.989 286.931c22.365 0 42.274-5.763 56.441-11.424-2.727-8.766-3.709-18.462-3.977-26.237-5.298 6.171-10.858 11.333-16.171 15.458-10.352 8.039-23.126 12.405-36.282 12.405s-25.93-4.366-36.281-12.405c-5.313-4.126-10.874-9.288-16.172-15.458-.268 7.775-1.25 17.471-3.977 26.237 14.171 5.663 34.073 11.424 56.419 11.424z" opacity="1" data-original="#ffaa7b" class=""></path><path fill="#f9a0b1" d="m347.791 287.388-9.341-15.49c-2.733-4.533-8.503-6.213-13.222-3.815-12.623 6.415-38.624 17.347-69.238 17.347-3.037 0-6.027-.112-8.965-.312-4.673 2.619-15.027 9.596-19.4 21.922-3.43 9.669-2.382 20.443 3.112 32.053-.555.086-1.215.191-1.965.318 8.255 1.864 17.316 2.961 27.218 2.961 52.374 0 81.271-30.608 91.197-43.632a10.113 10.113 0 0 0 .604-11.352z" opacity="1" data-original="#f9a0b1"></path><path fill="#ff7186" d="m173.5 271.878-9.331 15.493a10.109 10.109 0 0 0 .608 11.346c8.364 10.976 30.207 34.45 68.215 41.565-19.754-38.714 16.98-54.993 16.98-54.993l-.001-.001c-27.983-1.29-51.449-11.229-63.244-17.228-4.72-2.401-10.494-.719-13.227 3.818z" opacity="1" data-original="#ff7186"></path><path fill="#ff4155" d="M72.917 335.94c-17.227 10.678-27.659 27.37-33.921 44.861 16.995 32.34 40.995 60.42 70 82.208v-69.688c.001-30.111-21.34-48.365-36.079-57.381z" opacity="1" data-original="#ff4155"></path><path fill="#ff7186" d="M439.083 335.94c-14.739 9.016-36.08 27.27-36.08 57.381v69.688c29.005-21.788 53.005-49.868 70-82.208-6.261-17.491-16.693-34.183-33.92-44.861z" opacity="1" data-original="#ff7186"></path><path fill="#945230" d="M238.457 1.094c-52.68 7.178-57.687 37.046-57.71 48.004-.005 2.298-1.278 4.428-3.344 5.433-27.402 13.33-12.628 79.577-12.628 79.577 2.752.184 7.632 1.298 9.78 2.339.526-3.274 1.385-8.497 2.598-11.612.924-2.374 2.079-4.772 3.524-7.038 2.506-3.931 3.647-8.569 3.307-13.206-.985-13.403-2.51-37.813 15.182-45.774 14.988-6.744 33.374-2.839 45.098 1.06a37.23 37.23 0 0 0 23.477 0c11.725-3.899 30.11-7.804 45.098-1.06 17.641 7.938 16.164 32.221 15.19 45.659-.339 4.672.772 9.358 3.297 13.32 1.491 2.339 2.674 4.819 3.613 7.268 1.167 3.044 1.997 8.19 2.51 11.384 2.708-1.312 8.578-2.741 11.889-2.273.405-14.048 1.702-31.193 1.702-31.193C366.649 26.521 295.179-6.635 238.457 1.094z" opacity="1" data-original="#945230" class=""></path><path fill="#753616" d="M245.918 60.38a21.019 21.019 0 0 0-1.658-2.505C223.48 31.262 242.962 9.2 253.714.012c-5.153.045-10.263.401-15.257 1.082-52.68 7.178-57.687 37.046-57.71 48.004-.005 2.298-1.278 4.428-3.344 5.433-27.403 13.33-12.628 79.577-12.628 79.577 2.752.184 7.632 1.298 9.78 2.339.526-3.274 1.385-8.497 2.598-11.612.924-2.374 2.079-4.772 3.523-7.038 2.506-3.931 3.647-8.569 3.307-13.206-.985-13.403-2.51-37.813 15.181-45.774 14.988-6.744 33.374-2.839 45.098 1.06.548.182 1.101.347 1.656.503z" opacity="1" data-original="#753616" class=""></path><path fill="#73c3f9" d="M411.6 77.746c-17.771 12.145-31.22 30.742-26.537 58.7 12.27 73.253-44.248 110.625 44.083 149.899 31.405 13.964 51.185 30.3 63.502 44.267 5.444-20.286 8.354-41.61 8.354-63.615 0-76.224-34.812-144.316-89.402-189.251zM100.4 77.746c17.771 12.145 31.22 30.742 26.537 58.7-12.27 73.253 44.248 110.625-44.083 149.899-31.405 13.964-51.185 30.3-63.502 44.267-5.444-20.286-8.354-41.61-8.354-63.615 0-76.224 34.812-144.316 89.402-189.251z" opacity="1" data-original="#73c3f9" class=""></path><path fill="#ffaa7b" d="M355.256 133.998c-4.103-3.76-13.276-1.854-16.81.448a49.69 49.69 0 0 1 .15 14.623l-4.17 30.372c0 2.448-.077 4.85-.219 7.21 10.169 3.067 16.22-6.062 17.071-12.327a46.57 46.57 0 0 1 1.796-7.949c2.704-8.446 12.462-22.956 2.182-32.377z" opacity="1" data-original="#ffaa7b" class=""></path><path fill="#fc9460" d="M156.744 133.998c4.103-3.76 13.276-1.854 16.81.448a49.656 49.656 0 0 0-.149 14.623l4.17 30.372c0 2.448.077 4.85.219 7.21-10.169 3.067-16.22-6.062-17.071-12.327a46.57 46.57 0 0 0-1.796-7.949c-2.705-8.446-12.463-22.956-2.183-32.377z" opacity="1" data-original="#fc9460"></path><path fill="#ffc7ab" d="M336.937 125.063c-.939-2.449-2.122-4.929-3.612-7.268-2.525-3.962-3.636-8.648-3.298-13.32.974-13.438.452-39.721-17.19-47.659-14.988-6.744-33.372-2.839-45.096 1.059a37.239 37.239 0 0 1-23.48 0c-.607-.202-1.236-.403-1.878-.604-14.281 9.903-14.638 33.782-13.713 46.371a21.945 21.945 0 0 1-3.357 13.407c-1.466 2.301-2.639 4.735-3.577 7.145-3.043 7.818-3.93 16.296-2.79 24.598l4.235 30.841c0 44.338 23.668 74.475 43.801 90.109 3.39 2.632 7.047 4.851 10.879 6.684a58.897 58.897 0 0 0 14.422-8.225c19.831-15.399 43.145-45.085 43.145-88.759l4.17-30.372c1.11-8.097.267-16.367-2.661-24.007z" opacity="1" data-original="#ffc7ab" class=""></path><path fill="#ffaa7b" d="M267.171 268.2c-19.831-15.399-43.144-45.085-43.144-88.759l-4.171-30.379c-1.123-8.177-.249-16.529 2.749-24.229.924-2.374 2.079-4.772 3.524-7.038a21.612 21.612 0 0 0 3.306-13.206c-.943-12.834-.537-37.582 15.031-46.651-.068-.022-.137-.041-.205-.064-11.725-3.898-30.109-7.803-45.096-1.059-17.692 7.96-18.166 34.371-17.181 47.774a21.613 21.613 0 0 1-3.307 13.206c-1.444 2.266-2.599 4.664-3.523 7.038-2.997 7.7-3.871 16.052-2.748 24.229l4.171 30.379c0 43.674 23.313 73.359 43.144 88.759 10.351 8.038 23.125 12.404 36.281 12.404a59.295 59.295 0 0 0 23.726-4.949 58.825 58.825 0 0 1-12.557-7.455z" opacity="1" data-original="#ffaa7b" class=""></path><path fill="#945230" d="M334.862 191.059c-3.298 8.139-10.154 17.931-22.717 23.381-2.319-13.828-12.296-27.674-25.616-30.694l-20.359-5.981c-3.539-1.04-7.083.776-8.508 3.859a.717.717 0 0 1-1.307 0c-1.425-3.083-4.969-4.898-8.508-3.859l-20.359 5.981c-13.583 3.08-23.696 17.417-25.751 31.513-13.897-5.241-21.131-15.636-24.6-24.2v.004c0 3.873.361 7.744 1.072 11.551 8.648 46.353 35.605 64.373 55.982 74.758a47.921 47.921 0 0 0 43.47.011c20.374-10.373 47.462-28.396 56.126-74.757a62.965 62.965 0 0 0 1.075-11.567zm-55.182 52.403c-8.744 3.09-18.286-2.41-19.406-11.512l-.041-.356a3.353 3.353 0 0 0-6.668 0l-.041.356c-1.12 9.102-10.662 14.602-19.406 11.512-12.031-4.251-17.206-12.302-19.431-18.205a45.907 45.907 0 0 1 27.163-17.752l3.637-.803c5.3-1.17 9.399-6.344 10.902-11.857.172-.633 1.072-.633 1.245 0 1.503 5.513 5.601 10.687 10.902 11.857l3.637.803a45.914 45.914 0 0 1 26.088 16.33c-1.344 5.962-5.549 15.022-18.581 19.627z" opacity="1" data-original="#945230" class=""></path><path fill="#753616" d="M243.163 243.75c-2.854.802-5.996.79-9.048-.288-12.031-4.251-17.207-12.302-19.431-18.205a46.036 46.036 0 0 1 13.747-12.464c-15.126-9.919-5.984-25.437-4.3-28.029-11.872 4.484-20.513 17.587-22.395 30.494-13.897-5.241-21.131-15.636-24.6-24.2v.004c0 3.873.361 7.744 1.072 11.551 8.648 46.353 35.605 64.373 55.982 74.758a47.923 47.923 0 0 0 32.401 4.009c-28.51-7.708-24.555-32.558-23.428-37.63z" opacity="1" data-original="#753616" class=""></path></g></svg>