<svg xmlns="http://www.w3.org/2000/svg" version="1.1" xmlns:xlink="http://www.w3.org/1999/xlink" width="512" height="512" x="0" y="0" viewBox="0 0 512 512" style="enable-background:new 0 0 512 512" xml:space="preserve" class=""><g><path fill="#49b1f7" d="M473.228 380.375c17.732-33.904 27.774-72.465 27.774-113.377 0-135.311-109.691-245.002-245.002-245.002S10.998 131.687 10.998 266.998c0 40.912 10.042 79.473 27.774 113.377z" opacity="1" data-original="#49b1f7" class=""></path><path fill="#ffaa7b" d="M255.739 364.665a80.533 80.533 0 0 0 45.176-13.856c10.015-14.256 17.523-31.75 16.35-51.508-1.123-18.909-9.598-30.738-9.912-31.167-1.768-2.721-3.295-6.087-4.552-10.011h-3.076a107.888 107.888 0 0 1-7.705 6.604c-10.352 8.039-23.125 12.405-36.281 12.405s-25.93-4.366-36.282-12.405a108.1 108.1 0 0 1-7.704-6.604h-2.657c.07.068.136.141.206.209-1.272 4.05-2.83 7.509-4.635 10.293-.62.861-8.829 12.608-9.933 31.198-1.164 19.611 6.223 36.99 16.126 51.188a80.532 80.532 0 0 0 44.879 13.654z" opacity="1" data-original="#ffaa7b" class=""></path><path fill="#fc9460" d="M255.739 277.133c-13.156 0-25.93-4.366-36.282-12.405a108.1 108.1 0 0 1-7.704-6.604h-2.657c.07.068.136.141.206.209-1.272 4.05-2.83 7.509-4.635 10.293-.62.861-8.829 12.608-9.933 31.198-1.164 19.611 6.223 36.99 16.126 51.188a80.304 80.304 0 0 0 4.033 2.521c30.062-17.083 38.833-53.238 41.288-76.41-.148.002-.295.01-.442.01z" opacity="1" data-original="#fc9460" class=""></path><path fill="#deeeff" d="M208.364 347.269c6.513 10.187 14.473 18.896 21.895 25.804a8.472 8.472 0 0 1 2.691 6.183v131.656c7.59.709 15.275 1.088 23.05 1.088s15.46-.379 23.05-1.087V379.555c.085-.412-.473-4.059 2.689-7.003 7.359-6.849 15.245-15.47 21.727-25.544a80.514 80.514 0 0 1-47.728 15.658 80.524 80.524 0 0 1-47.374-15.397z" opacity="1" data-original="#deeeff"></path><path fill="#d3dcfb" d="M230.259 373.074a8.472 8.472 0 0 1 2.691 6.183v5.609a80.624 80.624 0 0 0 22.789 3.299 80.584 80.584 0 0 0 23.311-3.459v-5.152c.085-.412-.473-4.059 2.689-7.003 7.359-6.849 15.245-15.47 21.727-25.544a80.514 80.514 0 0 1-47.728 15.658 80.517 80.517 0 0 1-47.375-15.396c6.514 10.187 14.474 18.896 21.896 25.805z" opacity="1" data-original="#d3dcfb"></path><path fill="#ff4155" d="M473.228 380.375c-2.773-10.113-5.949-19.214-9.59-26.642-15.118-30.84-69.667-32-87.333-49.667 0 0-4.971 69.714-98.756 75.19v131.789c85.209-7.426 157.913-58.46 195.679-130.67zM165.528 356.045c-17.947 5.019-49.587 18.061-49.587 47.683v64.294c34.16 23.843 74.68 39.203 118.509 43.024v-131.79c-32.452-1.895-54.264-11.482-68.922-23.211z" opacity="1" data-original="#ff4155"></path><path fill="#e80054" d="M135.695 304.066c-17.667 17.667-72.215 18.826-87.333 49.667-3.641 7.428-6.817 16.529-9.59 26.642C57.5 416.184 84.823 446.781 118 469.439v-63.201c0-30.946 35.918-43.087 51.846-46.95-31.806-22.372-34.151-55.222-34.151-55.222z" opacity="1" data-original="#e80054"></path><path fill="#ff7186" d="M370.891 276.536c-12.968-13.811-36.783-24.915-55.172-35.803 0 0-.286.164-.887.49a114.415 114.415 0 0 1-13.834 16.164c1.087 3.645 2.722 7.912 5.096 11.566 0 0 34.252 47.001-25.377 102.501a9.954 9.954 0 0 0-3.169 7.281c0 6.558 6.226 11.345 12.555 9.629 17.743-4.813 50.752-15.742 75.539-35.486 23.717-18.892 26.003-54.239 5.249-76.342zM231.282 371.976c-42.745-39.785-37.247-75.201-30.706-92.068-6.529.971-17.138 3.136-24.18 7.956-9.221 6.311-13.896 15.524-13.896 27.383 0 8.941-3.146 16.305-8.859 20.733-4.317 3.346-12.621 5.232-18.724 4.651a51.232 51.232 0 0 0 11.439 12.768c24.787 19.744 57.797 30.673 75.54 35.486 6.329 1.717 12.555-3.071 12.555-9.629a9.958 9.958 0 0 0-3.169-7.28z" opacity="1" data-original="#ff7186"></path><path fill="#ff4155" d="M164 315.246c0-25.901 23.279-32.453 36.111-34.099 2.707-7.431 5.794-11.673 5.794-11.673 2.378-3.66 4.014-7.935 5.102-11.583a114.318 114.318 0 0 1-14.095-16.285c-.42-.23-.631-.35-.631-.35-18.389 10.887-42.204 21.991-55.172 35.802-16.815 17.909-18.502 44.509-5.924 64.008 13.181 3.394 28.815-5.139 28.815-25.82z" opacity="1" data-original="#ff4155"></path><path fill="#deeeff" d="M192.819 449.811c-4.692 0-8.532-3.839-8.532-8.532v-70.083c0-4.693 3.839-8.532 8.532-8.532s8.532 3.839 8.532 8.532v70.083c-.001 4.693-3.84 8.532-8.532 8.532zM319.704 449.811c-4.693 0-8.532-3.839-8.532-8.532v-70.083c0-4.693 3.839-8.532 8.532-8.532 4.692 0 8.532 3.839 8.532 8.532v70.083c0 4.693-3.84 8.532-8.532 8.532z" opacity="1" data-original="#deeeff"></path><path fill="#945230" d="M238.457 1.094c-52.68 7.178-57.687 37.046-57.71 48.004-.005 2.298-1.278 4.428-3.344 5.433-27.402 13.33-12.628 79.577-12.628 79.577 2.752.184 7.632 1.298 9.78 2.339.526-3.274 1.385-8.497 2.598-11.612.924-2.374 2.079-4.772 3.523-7.038a21.62 21.62 0 0 0 3.307-13.206c-.985-13.403-2.51-37.813 15.182-45.774 14.988-6.744 33.374-2.839 45.098 1.06a37.23 37.23 0 0 0 23.477 0c11.725-3.899 30.11-7.804 45.098-1.06 17.641 7.938 16.164 32.221 15.19 45.659-.339 4.672.772 9.358 3.297 13.32 1.491 2.339 2.674 4.819 3.613 7.268 1.167 3.044 1.997 8.19 2.51 11.384 2.708-1.312 8.578-2.741 11.889-2.273.405-14.048 1.702-31.192 1.702-31.192 15.61-76.462-55.86-109.618-112.582-101.889z" opacity="1" data-original="#945230" class=""></path><path fill="#753616" d="M245.29 60.195a12.226 12.226 0 0 0-1.03-2.319c-17.864-30.445.202-50.112 10.031-57.871-5.349.022-10.653.383-15.833 1.089-52.68 7.178-57.687 37.046-57.71 48.004-.005 2.298-1.278 4.428-3.344 5.433-27.402 13.33-12.628 79.577-12.628 79.577 2.752.184 7.632 1.298 9.78 2.339.526-3.274 1.385-8.497 2.598-11.612.924-2.374 2.079-4.772 3.523-7.038 2.506-3.931 3.647-8.569 3.307-13.206-.985-13.403-2.51-37.813 15.182-45.774 14.988-6.744 33.374-2.839 45.098 1.06.339.113.682.215 1.026.318z" opacity="1" data-original="#753616"></path><path fill="#ffaa7b" d="M355.256 133.998c-4.103-3.76-13.276-1.854-16.81.448a49.69 49.69 0 0 1 .15 14.623l-4.17 30.372c0 2.448-.077 4.85-.219 7.211 10.169 3.067 16.22-6.062 17.071-12.327a46.57 46.57 0 0 1 1.796-7.949c2.704-8.447 12.462-22.957 2.182-32.378z" opacity="1" data-original="#ffaa7b" class=""></path><path fill="#fc9460" d="M156.744 133.998c4.103-3.76 13.276-1.854 16.81.448a49.656 49.656 0 0 0-.149 14.623l4.17 30.372c0 2.448.077 4.85.219 7.211-10.169 3.067-16.22-6.062-17.071-12.327a46.57 46.57 0 0 0-1.796-7.949c-2.705-8.447-12.463-22.957-2.183-32.378z" opacity="1" data-original="#fc9460" class=""></path><path fill="#ffc7ab" d="M336.937 125.063c-.939-2.449-2.122-4.929-3.613-7.268-2.525-3.962-3.636-8.648-3.297-13.32.974-13.439.451-39.721-17.19-47.659-14.987-6.744-33.372-2.839-45.096 1.059a37.239 37.239 0 0 1-23.48 0c-.408-.136-.826-.271-1.249-.406-15.303 9.214-17.499 34.368-16.562 47.121.341 4.637-.8 9.274-3.307 13.206-1.444 2.266-2.6 4.664-3.523 7.038-2.997 7.701-3.871 16.052-2.749 24.229l4.171 30.379c0 43.674 23.314 73.359 43.145 88.759 3.406 2.645 9.388 6.06 13.809 8.169a58.866 58.866 0 0 0 14.286-8.169c19.831-15.4 43.145-45.085 43.145-88.759l4.17-30.372c1.111-8.097.268-16.367-2.66-24.007z" opacity="1" data-original="#ffc7ab"></path><path fill="#ffaa7b" d="M267.185 268.2c-19.831-15.4-43.145-45.085-43.145-88.759l-4.171-30.379c-1.123-8.177-.249-16.528 2.749-24.229.924-2.374 2.079-4.772 3.523-7.038 2.506-3.931 3.647-8.569 3.307-13.206-.943-12.833-.537-37.577 15.026-46.648-.071-.023-.143-.043-.214-.067-11.725-3.899-30.109-7.803-45.096-1.059-17.692 7.96-18.166 34.371-17.182 47.774a21.613 21.613 0 0 1-3.307 13.206c-1.444 2.266-2.599 4.664-3.523 7.038-2.998 7.701-3.871 16.052-2.749 24.229l4.171 30.379c0 43.674 23.314 73.359 43.145 88.759 10.351 8.038 23.125 12.404 36.281 12.404a59.31 59.31 0 0 0 23.733-4.952 58.858 58.858 0 0 1-12.548-7.452z" opacity="1" data-original="#ffaa7b" class=""></path><path fill="#73c3f9" d="M411.6 77.746c-17.771 12.145-31.22 30.742-26.537 58.7 12.27 73.253-44.248 110.625 44.083 149.899 31.405 13.964 51.185 30.3 63.502 44.267 5.444-20.286 8.354-41.61 8.354-63.615 0-76.224-34.812-144.316-89.402-189.251zM100.4 77.746c17.771 12.145 31.22 30.742 26.537 58.7-12.27 73.253 44.248 110.625-44.083 149.899-31.405 13.964-51.185 30.3-63.502 44.267-5.444-20.286-8.354-41.61-8.354-63.615 0-76.224 34.812-144.316 89.402-189.251z" opacity="1" data-original="#73c3f9" class=""></path><path fill="#e80054" d="M437.608 431.418c-4.848-20.04-17.209-31.614-27.207-37.935-6.251-3.952-14.401.496-14.401 7.892v66.688a246.383 246.383 0 0 0 41.608-36.645z" opacity="1" data-original="#e80054"></path></g></svg>