<svg xmlns="http://www.w3.org/2000/svg" version="1.1" xmlns:xlink="http://www.w3.org/1999/xlink" width="512" height="512" x="0" y="0" viewBox="0 0 512 512" style="enable-background:new 0 0 512 512" xml:space="preserve" class=""><g><linearGradient id="a" x1="40.761" x2="483.481" y1="473.946" y2="31.226" gradientUnits="userSpaceOnUse"><stop offset="0" style="stop-color:#FFFFFF;stop-opacity:0" stop-color="#ffffff;stop-opacity:0"></stop><stop offset=".262" style="stop-color:#EDEDFF;stop-opacity:0.4161" stop-color="#ededff;stop-opacity:0.4161"></stop><stop offset=".629" style="stop-color:#D8D8FF" stop-color="#d8d8ff"></stop></linearGradient><path d="M495.694 72.678c-5.853-54.483-52.671-90.479-105.078-63.529-28.492 14.652-44.341 50.527-74.707 58.231-31.824 8.073-33.396-45.363-55.748-58.139C167.838-43.532 57.884 216.236 34.115 295.539c-46.534 155.257-3.345 209.947 74.389 173.705 18.584-8.664 36.425-23.848 56.568-20.08 32.51 6.083 42.316 57.303 75.087 61.776C399.291 532.665 510.941 214.6 495.694 72.678z" style="fill:url(#a);" fill=""></path><path d="M73.747 44.062v30.487M73.747 102.057v12.416M73.747 141.981v12.416M73.747 181.906v12.416M73.747 221.83v12.416M73.747 261.754v12.416M73.747 301.678v12.416M73.747 341.603v12.416M73.747 381.527v12.416M73.747 421.451v30.487M459.938 65.747h-30.487M401.943 65.747h-12.416M362.019 65.747h-12.416M322.094 65.747h-12.416M282.17 65.747h-12.416M242.246 65.747H229.83M202.322 65.747h-12.416M162.397 65.747h-12.416M122.473 65.747h-12.416M82.549 65.747H52.062M438.253 451.938v-30.487M438.253 393.943v-12.416M438.253 354.019v-12.416M438.253 314.094v-12.416M438.253 274.17v-12.416M438.253 234.246V221.83M438.253 194.322v-12.416M438.253 154.397v-12.416M438.253 114.473v-12.416M438.253 74.549V44.062M52.062 430.253h30.487M110.057 430.253h12.416M149.981 430.253h12.416M189.906 430.253h12.416M229.83 430.253h12.416M269.754 430.253h12.416M309.678 430.253h12.416M349.603 430.253h12.416M389.527 430.253h12.416M429.451 430.253h30.487" style="stroke-width:10;stroke-linecap:round;stroke-linejoin:round;stroke-miterlimit:10;" fill="none" stroke="#0000cb" stroke-width="10" stroke-linecap="round" stroke-linejoin="round" stroke-miterlimit="10" data-original="#0000cb"></path><g style="opacity:0.1;"><path d="M403.325 393.665h-18.678a5 5 0 0 0-5 5v4.339H311v-5.207c27.439-16.438 46.973-44.764 51.404-77.818h5.299a5 5 0 0 0 5-5V296.3a5 5 0 0 0-5-5h-18.678a5 5 0 0 0-5 5v18.678a5 5 0 0 0 5 5h3.281c-4.048 27.309-19.49 50.94-41.306 65.937v-2.225c0-2.76-2.24-5-5-5H206c-2.76 0-5 2.24-5 5v2.225c-21.817-14.996-37.258-38.628-41.306-65.937h3.281a5 5 0 0 0 5-5V296.3a5 5 0 0 0-5-5h-18.678a5 5 0 0 0-5 5v18.678a5 5 0 0 0 5 5h5.299c4.431 33.054 23.965 61.381 51.404 77.818v5.207h-68.646v-4.339a5 5 0 0 0-5-5h-18.678a5 5 0 0 0-5 5v18.678a5 5 0 0 0 5 5h18.678a5 5 0 0 0 5-5v-4.339H201v36.249h-11.095c-2.762 0-5 2.238-5 5s2.238 5 5 5H201v24.437c0 2.76 2.24 5 5 5h100c2.76 0 5-2.24 5-5v-24.437h11.095c2.762 0 5-2.238 5-5s-2.238-5-5-5H311v-36.249h68.646v4.339a5 5 0 0 0 5 5h18.678a5 5 0 0 0 5-5v-18.678a4.998 4.998 0 0 0-4.999-4.999z" style="" fill="#0000cb" data-original="#0000cb"></path><path d="M224.312 189.156h2.36c-5.958 15.531-17.266 33.935-38.704 46.195a3.137 3.137 0 0 0-1.277 4.088l66.486 137.48c1.141 2.36 4.504 2.36 5.645 0l66.486-137.48a3.136 3.136 0 0 0-1.277-4.088c-21.439-12.259-32.746-30.663-38.705-46.195h2.36a6.27 6.27 0 0 0 6.229-5.545l7.215-61.953h-90.263l7.215 61.953a6.275 6.275 0 0 0 6.23 5.545zM73.747 143.473a5 5 0 0 0 5-5v-12.416c0-2.762-2.238-5-5-5s-5 2.238-5 5v12.416a5 5 0 0 0 5 5zM68.747 178.397c0 2.762 2.238 5 5 5s5-2.238 5-5v-12.416c0-2.762-2.238-5-5-5s-5 2.238-5 5v12.416zM68.747 218.321c0 2.762 2.238 5 5 5s5-2.238 5-5v-12.416c0-2.762-2.238-5-5-5s-5 2.238-5 5v12.416zM68.747 258.246c0 2.762 2.238 5 5 5s5-2.238 5-5V245.83c0-2.762-2.238-5-5-5s-5 2.238-5 5v12.416zM68.747 298.17c0 2.762 2.238 5 5 5s5-2.238 5-5v-12.416c0-2.762-2.238-5-5-5s-5 2.238-5 5v12.416zM68.747 338.095c0 2.762 2.238 5 5 5s5-2.238 5-5v-12.416c0-2.762-2.238-5-5-5s-5 2.238-5 5v12.416zM68.747 378.019c0 2.762 2.238 5 5 5s5-2.238 5-5v-12.416c0-2.762-2.238-5-5-5s-5 2.238-5 5v12.416zM68.747 417.943c0 2.762 2.238 5 5 5s5-2.238 5-5v-12.416c0-2.762-2.238-5-5-5s-5 2.238-5 5v12.416zM429.451 94.747h3.802v3.802c0 2.762 2.238 5 5 5s5-2.238 5-5v-3.802h16.686c2.762 0 5-2.238 5-5s-2.238-5-5-5h-16.686V68.062c0-2.762-2.238-5-5-5s-5 2.238-5 5v16.686h-3.802a5 5 0 1 0 0 9.999zM389.527 94.747h12.416c2.762 0 5-2.238 5-5s-2.238-5-5-5h-12.416a5 5 0 1 0 0 10zM349.603 94.747h12.416c2.762 0 5-2.238 5-5s-2.238-5-5-5h-12.416c-2.762 0-5 2.238-5 5s2.238 5 5 5zM309.679 94.747h12.416c2.762 0 5-2.238 5-5s-2.238-5-5-5h-12.416c-2.762 0-5 2.238-5 5s2.238 5 5 5zM269.754 94.747h12.416c2.762 0 5-2.238 5-5s-2.238-5-5-5h-12.416c-2.762 0-5 2.238-5 5s2.238 5 5 5zM229.83 94.747h12.416c2.762 0 5-2.238 5-5s-2.238-5-5-5H229.83c-2.762 0-5 2.238-5 5s2.238 5 5 5zM189.905 94.747h12.416c2.762 0 5-2.238 5-5s-2.238-5-5-5h-12.416a5 5 0 1 0 0 10zM149.981 94.747h12.416c2.762 0 5-2.238 5-5s-2.238-5-5-5h-12.416a5 5 0 1 0 0 10zM110.057 94.747h12.416c2.762 0 5-2.238 5-5s-2.238-5-5-5h-12.416c-2.762 0-5 2.238-5 5s2.238 5 5 5zM82.549 84.747h-3.802V68.062c0-2.762-2.238-5-5-5s-5 2.238-5 5v16.686H52.062c-2.762 0-5 2.238-5 5s2.238 5 5 5h16.686v3.802c0 2.762 2.238 5 5 5s5-2.238 5-5v-3.802h3.802a5.001 5.001 0 0 0-.001-10.001zM438.253 400.527a5 5 0 0 0-5 5v12.416c0 2.762 2.238 5 5 5s5-2.238 5-5v-12.416a5 5 0 0 0-5-5zM443.253 365.603c0-2.762-2.238-5-5-5s-5 2.238-5 5v12.416c0 2.762 2.238 5 5 5s5-2.238 5-5v-12.416zM443.253 325.679c0-2.762-2.238-5-5-5s-5 2.238-5 5v12.416c0 2.762 2.238 5 5 5s5-2.238 5-5v-12.416zM443.253 285.754c0-2.762-2.238-5-5-5s-5 2.238-5 5v12.416c0 2.762 2.238 5 5 5s5-2.238 5-5v-12.416zM443.253 245.83c0-2.762-2.238-5-5-5s-5 2.238-5 5v12.416c0 2.762 2.238 5 5 5s5-2.238 5-5V245.83zM443.253 205.905c0-2.762-2.238-5-5-5s-5 2.238-5 5v12.416c0 2.762 2.238 5 5 5s5-2.238 5-5v-12.416zM443.253 165.981c0-2.762-2.238-5-5-5s-5 2.238-5 5v12.416c0 2.762 2.238 5 5 5s5-2.238 5-5v-12.416zM443.253 126.057c0-2.762-2.238-5-5-5s-5 2.238-5 5v12.416c0 2.762 2.238 5 5 5s5-2.238 5-5v-12.416zM82.549 449.253h-3.802v-3.802c0-2.762-2.238-5-5-5s-5 2.238-5 5v3.802H52.062c-2.762 0-5 2.238-5 5s2.238 5 5 5h16.686v16.686c0 2.762 2.238 5 5 5s5-2.238 5-5v-16.686h3.802a5 5 0 1 0-.001-10zM122.473 449.253h-12.416c-2.762 0-5 2.238-5 5s2.238 5 5 5h12.416a5 5 0 1 0 0-10zM162.397 449.253h-12.416c-2.762 0-5 2.238-5 5s2.238 5 5 5h12.416c2.762 0 5-2.238 5-5s-2.238-5-5-5zM362.019 449.253h-12.416c-2.762 0-5 2.238-5 5s2.238 5 5 5h12.416a5 5 0 1 0 0-10zM401.943 449.253h-12.416c-2.762 0-5 2.238-5 5s2.238 5 5 5h12.416c2.762 0 5-2.238 5-5s-2.238-5-5-5zM459.938 449.253h-16.686v-3.802c0-2.762-2.238-5-5-5s-5 2.238-5 5v3.802h-3.802c-2.762 0-5 2.238-5 5s2.238 5 5 5h3.802v16.686c0 2.762 2.238 5 5 5s5-2.238 5-5v-16.686h16.686c2.762 0 5-2.238 5-5s-2.238-5-5-5z" style="" fill="#0000cb" data-original="#0000cb"></path></g><path d="M132.354 384.004h247.292M358.364 281.639c0 56.534-45.83 102.364-102.364 102.364s-102.364-45.83-102.364-102.364" style="stroke-width:10;stroke-linecap:round;stroke-linejoin:round;stroke-miterlimit:10;" fill="none" stroke="#0000cb" stroke-width="10" stroke-linecap="round" stroke-linejoin="round" stroke-miterlimit="10" data-original="#0000cb"></path><path d="M265.339 398.343h-18.678a5 5 0 0 1-5-5v-18.678a5 5 0 0 1 5-5h18.678a5 5 0 0 1 5 5v18.678a5 5 0 0 1-5 5z" style="" fill="#ff9c33" data-original="#ff9c33"></path><path d="M265.339 398.343h-18.678a5 5 0 0 1-5-5v-18.678a5 5 0 0 1 5-5h18.678a5 5 0 0 1 5 5v18.678a5 5 0 0 1-5 5z" style="stroke-width:10;stroke-linecap:round;stroke-linejoin:round;stroke-miterlimit:10;" fill="none" stroke="#0000cb" stroke-width="10" stroke-linecap="round" stroke-linejoin="round" stroke-miterlimit="10" data-original="#0000cb"></path><path d="M127.354 398.343h-18.678a5 5 0 0 1-5-5v-18.678a5 5 0 0 1 5-5h18.678a5 5 0 0 1 5 5v18.678a5 5 0 0 1-5 5z" style="" fill="#ff9c33" data-original="#ff9c33"></path><path d="M127.354 398.343h-18.678a5 5 0 0 1-5-5v-18.678a5 5 0 0 1 5-5h18.678a5 5 0 0 1 5 5v18.678a5 5 0 0 1-5 5z" style="stroke-width:10;stroke-linecap:round;stroke-linejoin:round;stroke-miterlimit:10;" fill="none" stroke="#0000cb" stroke-width="10" stroke-linecap="round" stroke-linejoin="round" stroke-miterlimit="10" data-original="#0000cb"></path><path d="M403.325 398.343h-18.678a5 5 0 0 1-5-5v-18.678a5 5 0 0 1 5-5h18.678a5 5 0 0 1 5 5v18.678a5 5 0 0 1-5 5z" style="" fill="#ff9c33" data-original="#ff9c33"></path><path d="M403.325 398.343h-18.678a5 5 0 0 1-5-5v-18.678a5 5 0 0 1 5-5h18.678a5 5 0 0 1 5 5v18.678a5 5 0 0 1-5 5z" style="stroke-width:10;stroke-linecap:round;stroke-linejoin:round;stroke-miterlimit:10;" fill="none" stroke="#0000cb" stroke-width="10" stroke-linecap="round" stroke-linejoin="round" stroke-miterlimit="10" data-original="#0000cb"></path><path d="M162.975 295.979h-18.678a5 5 0 0 1-5-5V272.3a5 5 0 0 1 5-5h18.678a5 5 0 0 1 5 5v18.678a5 5 0 0 1-5 5.001z" style="" fill="#ff9c33" data-original="#ff9c33"></path><path d="M162.975 295.979h-18.678a5 5 0 0 1-5-5V272.3a5 5 0 0 1 5-5h18.678a5 5 0 0 1 5 5v18.678a5 5 0 0 1-5 5.001z" style="stroke-width:10;stroke-linecap:round;stroke-linejoin:round;stroke-miterlimit:10;" fill="none" stroke="#0000cb" stroke-width="10" stroke-linecap="round" stroke-linejoin="round" stroke-miterlimit="10" data-original="#0000cb"></path><path d="M367.704 295.979h-18.678a5 5 0 0 1-5-5V272.3a5 5 0 0 1 5-5h18.678a5 5 0 0 1 5 5v18.678a5 5 0 0 1-5 5.001z" style="" fill="#ff9c33" data-original="#ff9c33"></path><path d="M367.704 295.979h-18.678a5 5 0 0 1-5-5V272.3a5 5 0 0 1 5-5h18.678a5 5 0 0 1 5 5v18.678a5 5 0 0 1-5 5.001z" style="stroke-width:10;stroke-linecap:round;stroke-linejoin:round;stroke-miterlimit:10;" fill="none" stroke="#0000cb" stroke-width="10" stroke-linecap="round" stroke-linejoin="round" stroke-miterlimit="10" data-original="#0000cb"></path><path d="M311 359.69v100c0 2.76-2.24 5-5 5H206c-2.76 0-5-2.24-5-5v-100c0-2.76 2.24-5 5-5h100c2.76 0 5 2.24 5 5z" style="" fill="#ff6c6c" data-original="#ff6c6c"></path><path d="m269.57 354.69-10.75 22.23c-1.14 2.36-4.5 2.36-5.64 0l-10.75-22.23h27.14z" style="" fill="#ff4d4d" data-original="#ff4d4d"></path><path d="M303.289 454.892c-.29-.987-1.5-1.438-2.399-.88-1.658 1.031-3.126 1.545-4.404 1.545-1.489 0-2.489-.546-3.004-1.641-.515-1.092-.772-2.954-.772-5.58V406.76c0-6.016-.43-10.775-1.287-14.278-.858-3.5-2.548-6.454-5.064-8.862-2.746-2.626-6.18-4.485-10.3-5.58-8.946-2.378-18.5-2.325-27.56-.557-7.523 1.468-15.849 4.175-20.418 10.486-5.833 8.057-.472 20.432 10.213 20.432 13.277 0 18.493-16.351 7.035-23.136 3.117-1.195 9.05-2.847 14.934-1.085 4.577 1.37 7.717 5.454 7.728 10.039v12.869c0 2.954-1.459 5.28-4.377 6.975-12.07 7.011-28.982 7.549-38.279 18.709-4.622 5.549-5.332 13.692-2.683 20.251 3.386 8.382 11.475 11.67 20.449 11.67 11.098 0 19.51-4.431 25.233-13.293.112 4.049 1.429 7.278 3.948 9.683 2.516 2.408 6.923 3.61 13.218 3.61 7.025 0 13.03-1.805 18.014-5.416a1.503 1.503 0 0 0 .58-1.641l-.805-2.744zm-35.298-13.556c-3.321 4.487-6.27 7.076-11.158 8.071-3.495.712-11.158-.459-11.158-8.347 0-7.576 9.098-11.161 13.56-13.898 4.463-2.626 7.381-5.031 8.755-7.221v21.395z" style="" fill="#ffb2b2" data-original="#ffb2b2"></path><path d="M218.524 371.938v.131" style="stroke-width:10;stroke-linecap:round;stroke-linejoin:round;stroke-miterlimit:10;" fill="none" stroke="#ffffff" stroke-width="10" stroke-linecap="round" stroke-linejoin="round" stroke-miterlimit="10" data-original="#ffffff"></path><path d="M270.441 354.692H206a5 5 0 0 0-5 5v100a5 5 0 0 0 5 5h100a5 5 0 0 0 5-5v-100a5 5 0 0 0-5-5h-7.176" style="stroke-width:10;stroke-linecap:round;stroke-linejoin:round;stroke-miterlimit:10;" fill="none" stroke="#0000cb" stroke-width="10" stroke-linecap="round" stroke-linejoin="round" stroke-miterlimit="10" data-original="#0000cb"></path><path d="m325.31 215.44-66.49 137.48a3.1 3.1 0 0 1-2.82 1.77l-3-117.712 3-92.388h23.71c2.57 15.38 11.78 48.15 44.32 66.76 1.43.82 2 2.6 1.28 4.09z" style="" fill="#b2b2ff" data-original="#b2b2ff"></path><path d="M256 189.15v-44.57h23.71c1.71 10.25 6.37 28.22 18.91 44.57H256z" style="" fill="#9393ff" data-original="#9393ff"></path><path d="M256.003 354.692V144.586h-23.716c-2.571 15.382-11.776 48.153-44.321 66.764a3.137 3.137 0 0 0-1.273 4.089l66.482 137.479c.57 1.185 1.699 1.774 2.828 1.774z" style="" fill="#d8d8ff" data-original="#d8d8ff"></path><path d="M256.001 144.582v44.57h-42.62c12.54-16.35 17.2-34.32 18.91-44.57h23.71z" style="" fill="#b2b2ff" data-original="#b2b2ff"></path><path d="M213.713 188.705c-6.325 8.358-14.684 16.321-25.745 22.646a3.137 3.137 0 0 0-1.277 4.088l66.486 137.48c1.141 2.36 4.504 2.36 5.645 0l66.486-137.48a3.136 3.136 0 0 0-1.277-4.088c-32.543-18.609-41.748-51.381-44.322-66.764" style="stroke-width:10;stroke-linecap:round;stroke-linejoin:round;stroke-miterlimit:10;" fill="none" stroke="#0000cb" stroke-width="10" stroke-linecap="round" stroke-linejoin="round" stroke-miterlimit="10" data-original="#0000cb"></path><circle cx="256.001" cy="219.07" r="20.866" style="" fill="#8282ff" data-original="#8282ff"></circle><circle cx="256.001" cy="219.07" r="9.432" style="" fill="#6c6cff" data-original="#6c6cff"></circle><path d="m211.545 103.462 6.539 56.148a6.27 6.27 0 0 0 6.229 5.545h63.375a6.27 6.27 0 0 0 6.229-5.545l6.539-56.148h-88.911z" style="" fill="#ff9c33" data-original="#ff9c33"></path><path d="m211.545 103.462 6.539 56.148a6.27 6.27 0 0 0 6.229 5.545h63.375a6.27 6.27 0 0 0 6.229-5.545l6.539-56.148" style="stroke-width:10;stroke-linecap:round;stroke-linejoin:round;stroke-miterlimit:10;" fill="none" stroke="#0000cb" stroke-width="10" stroke-linecap="round" stroke-linejoin="round" stroke-miterlimit="10" data-original="#0000cb"></path><path d="M256 295.979v-59.001" style="stroke-width:10;stroke-linecap:round;stroke-linejoin:round;stroke-miterlimit:10;" fill="none" stroke="#8282ff" stroke-width="10" stroke-linecap="round" stroke-linejoin="round" stroke-miterlimit="10" data-original="#8282ff"></path><path d="M244.662 141.661h22.676M240.662 122.869h30.676" style="stroke-width:10;stroke-linecap:round;stroke-linejoin:round;stroke-miterlimit:10;" fill="none" stroke="#ffc498" stroke-width="10" stroke-linecap="round" stroke-linejoin="round" stroke-miterlimit="10" data-original="#ffc498"></path><circle cx="153.636" cy="140.309" r="10" style="stroke-width:10;stroke-linecap:round;stroke-linejoin:round;stroke-miterlimit:10;" fill="none" stroke="#8282ff" stroke-width="10" stroke-linecap="round" stroke-linejoin="round" stroke-miterlimit="10" data-original="#8282ff"></circle><circle cx="137.473" cy="484.302" r="10" style="stroke-width:10;stroke-linecap:round;stroke-linejoin:round;stroke-miterlimit:10;" fill="none" stroke="#ff6c6c" stroke-width="10" stroke-linecap="round" stroke-linejoin="round" stroke-miterlimit="10" data-original="#ff6c6c"></circle><circle cx="379.646" cy="219.321" r="10" style="stroke-width:10;stroke-linecap:round;stroke-linejoin:round;stroke-miterlimit:10;" fill="none" stroke="#8282ff" stroke-width="10" stroke-linecap="round" stroke-linejoin="round" stroke-miterlimit="10" data-original="#8282ff"></circle><path d="m132.473 195.322-10 10" style="stroke-width:10;stroke-linecap:round;stroke-linejoin:round;stroke-miterlimit:10;" fill="none" stroke="#ff9c33" stroke-width="10" stroke-linecap="round" stroke-linejoin="round" stroke-miterlimit="10" data-original="#ff9c33"></path><path d="m320.887 24.482-10 10" style="stroke-width:10;stroke-linecap:round;stroke-linejoin:round;stroke-miterlimit:10;" fill="none" stroke="#ff6c6c" stroke-width="10" stroke-linecap="round" stroke-linejoin="round" stroke-miterlimit="10" data-original="#ff6c6c"></path></g></svg>