<svg xmlns="http://www.w3.org/2000/svg" version="1.1" xmlns:xlink="http://www.w3.org/1999/xlink" width="512" height="512" x="0" y="0" viewBox="0 0 512 512" style="enable-background:new 0 0 512 512" xml:space="preserve" class=""><g><linearGradient id="a" x1="1.257" x2="397.041" y1="469.324" y2="73.539" gradientUnits="userSpaceOnUse"><stop offset="0" stop-color="#fff" stop-opacity="0"></stop><stop offset=".262" stop-color="#ededff" stop-opacity=".416"></stop><stop offset=".629" stop-color="#d8d8ff"></stop></linearGradient><linearGradient id="b" x1="256" x2="256" y1="459.413" y2="41.32" gradientUnits="userSpaceOnUse"><stop offset="0" stop-color="#ff4d4d" stop-opacity=".4"></stop><stop offset=".146" stop-color="#ff4d4d" stop-opacity=".342"></stop><stop offset="1" stop-color="#ff4d4d" stop-opacity="0"></stop></linearGradient><path fill="url(#a)" d="M479.509 168.846c-27.361-39.783-94.787-32.753-137.51-62.55-12.395-8.645-21.123-21.802-14.096-35.544 67.025-131.079-146.616-48.594-231.066-2.045C17.17 112.62 113.846 198.818 103.86 260.9 90.895 341.5-27.082 407.306 28.406 495.624c49.945 79.495 574.892-146.79 451.103-326.778z" opacity="1" data-original="url(#a)" class=""></path><path fill="#6c6cff" d="M419.89 259.85c-.05.04-.1.07-.15.11a9.914 9.914 0 0 1-5.6 1.72H97.86c-2.07 0-4-.63-5.6-1.72-.07-.05-.14-.09-.2-.14l74.49-33.03L256 196.03l87.08 30.76z" opacity="1" data-original="#6c6cff" class=""></path><path fill="#4d4dff" d="M419.74 259.96a9.914 9.914 0 0 1-5.6 1.72h-51.47L256 220.03l-106.67 41.65H97.86c-2.07 0-4-.63-5.6-1.72L256 196.03z" opacity="1" data-original="#4d4dff"></path><path fill="#6c6cff" d="M330.575 81.944a4.989 4.989 0 0 1-4.107-2.144 4.999 4.999 0 0 1 1.247-6.96l49.243-34.277a4.997 4.997 0 0 1 7.598 2.517l8 23.913a4.998 4.998 0 0 1-3.155 6.327c-2.611.881-5.451-.536-6.327-3.155l-5.882-17.581-43.764 30.463a4.968 4.968 0 0 1-2.853.897z" opacity="1" data-original="#6c6cff" class=""></path><path fill="#b2b2ff" d="M395.291 73.438h-16.953c-2.762 0-5-2.238-5-5s2.238-5 5-5h16.953c2.762 0 5 2.238 5 5s-2.238 5-5 5z" opacity="1" data-original="#b2b2ff"></path><path fill="#6c6cff" d="M181.424 81.944c-.986 0-1.981-.29-2.852-.896l-43.763-30.463-5.882 17.581a4.995 4.995 0 0 1-6.328 3.155 4.999 4.999 0 0 1-3.155-6.327l8-23.913a5 5 0 0 1 7.598-2.517l49.243 34.277a4.999 4.999 0 0 1-2.861 9.103z" opacity="1" data-original="#6c6cff" class=""></path><path fill="#b2b2ff" d="M133.662 73.438h-16.953a5 5 0 1 1 0-10h16.953a5 5 0 1 1 0 10z" opacity="1" data-original="#b2b2ff"></path><path fill="#2c27ff" d="M296.729 413.51a5 5 0 0 1-5-5V209.145c0-2.762 2.238-5 5-5s5 2.238 5 5V408.51a5 5 0 0 1-5 5z" opacity="1" data-original="#2c27ff"></path><path fill="#4d4dff" d="M302.46 388.81h-25.39c-2.762 0-5-2.238-5-5s2.238-5 5-5h25.39c2.762 0 5 2.238 5 5s-2.238 5-5 5zM302.46 353.666h-25.39c-2.762 0-5-2.238-5-5s2.238-5 5-5h25.39c2.762 0 5 2.238 5 5s-2.238 5-5 5zM302.46 318.521h-25.39c-2.762 0-5-2.238-5-5s2.238-5 5-5h25.39c2.762 0 5 2.238 5 5s-2.238 5-5 5zM302.46 283.378h-25.39c-2.762 0-5-2.238-5-5s2.238-5 5-5h25.39c2.762 0 5 2.238 5 5s-2.238 5-5 5zM302.46 248.233h-25.39c-2.762 0-5-2.238-5-5s2.238-5 5-5h25.39c2.762 0 5 2.238 5 5s-2.238 5-5 5z" opacity="1" data-original="#4d4dff"></path><path fill="#b2b2ff" d="M277.07 204.259v134.894l-21.07 3-21.07-3v-17.124l3-29.857-3-30.489v-57.424l21.07-11.23z" opacity="1" data-original="#b2b2ff"></path><path fill="#ffffff" d="M252 322.029h-17.068v-60.346H252a4 4 0 0 1 4 4v52.346a4 4 0 0 1-4 4z" opacity="1" data-original="#ffffff"></path><path fill="#9393ff" d="M277.07 204.259v24l-21.07-8.23-21.07 8.23v-24l21.07-8.23zM234.932 339.153h42.136v99.872h-42.136z" opacity="1" data-original="#9393ff"></path><path fill="#8282ff" d="M234.932 339.153h42.136v17.023h-42.136z" opacity="1" data-original="#8282ff"></path><path fill="#ff6c6c" d="m259 122.71-3 73.32-18.21 7.11-20.47 5-22.12 11.63-25.65 10.02-21.64 5.45-18.39 10.18-37.26 14.54a9.978 9.978 0 0 1-4.4-8.28V113.07c0-4.1 2.51-7.79 6.32-9.3.02-.01.03-.01.05-.02l158.13-61.74c.02-.01.03-.01.05-.02 1.15-.45 2.37-.67 3.59-.67h.03z" opacity="1" data-original="#ff6c6c"></path><path fill="#ffffff" d="m149.282 127.567-39.486 15.418a3 3 0 0 0-1.909 2.795v75.758c0 2.112 2.124 3.563 4.091 2.795l35.395-13.82a3 3 0 0 0 1.909-2.795z" opacity="1" data-original="#ffffff"></path><path fill="#ffb2b2" d="M195.2 219.77c1.65-2.39 3.23-5.11 4.88-8.23l-.02-39.81c-2.09 4.6-6.54 10.18-13.35 16.75-6.8 6.78-20.68 16.9-20.68 30.99.01 5.13 1.44 8.38 3.52 10.32l-40.03 15.63c-1.9-9.03-.95-19.77 3.2-29.18l14.652-5.724a3 3 0 0 0 1.908-2.794V194.69c13.81-12.18 30.86-19.57 44.1-32.24 4.45-4.26 6.67-9.14 6.67-14.63l-.01-23.82v-.12c-.02-8.53-4.81-14.94-11.79-15.75-8.98-1.05-18.03 4.27-22.79 7.67 17.49 8.29 9.54 40.68-10.71 45.71-16.3 4.05-24.49-16.95-15.6-34.14 6.97-13.48 19.67-21.67 31.14-27.25 13.82-6.72 28.4-10.43 42.05-9.4 6.28.48 11.52 2.64 15.72 6.48 3.83 3.53 6.41 8.38 7.73 14.57 1.31 6.19 1.97 14.88 1.97 26.08l.03 65.29z" opacity="1" data-original="#ffb2b2"></path><path fill="#ff4d4d" d="M424.14 117.706V251.68c0 3.45-1.75 6.49-4.4 8.28L256 196.03V41.32h.03c1.21 0 2.42.22 3.56.67.02.01.03.01.05.02l158.13 61.74c.065.032.025-.04.563.465 3.204 3.011 5.807 9.094 5.807 13.491z" opacity="1" data-original="#ff4d4d"></path><path fill="#ffaa66" d="M276.652 162.249a40.05 40.05 0 0 1-.652-7.201V72.795a2 2 0 0 1 2.727-1.863l75.679 29.549 10.323 80.986z" opacity="1" data-original="#ffaa66"></path><path fill="#ffd5ba" d="M290.708 186.039a40.031 40.031 0 0 1-14.051-23.791c14.895-2.159 34.007-.521 53.991 2.13 37.711 5.003 6.36-34.122 23.759-63.896l24.277 9.479a39.97 39.97 0 0 1 8.446 4.528l-12.072 76.4z" opacity="1" data-original="#ffd5ba"></path><path fill="#ffc498" d="M401.407 231.337a2 2 0 0 0 2.727-1.863v-82.253c0-13.221-6.509-25.352-17.01-32.728-33.903 19.221-7.541 66.608-57.122 64.542-14.841-.618-27.967 2.309-39.292 7a39.916 39.916 0 0 0 10.74 6.273z" opacity="1" data-original="#ffc498"></path><path fill="#b2b2ff" d="M318.711 459.413H193.289a5 5 0 0 1-5-5v-24.458l67.711-3 67.711 3v24.458a5 5 0 0 1-5 5z" opacity="1" data-original="#b2b2ff"></path><path fill="#d8d8ff" d="M323.711 429.955H188.289l17.689-19.778a5 5 0 0 1 3.727-1.667h92.589a5 5 0 0 1 3.727 1.667z" opacity="1" data-original="#d8d8ff"></path><path fill="#ffaa66" d="M121.906 207.401a5 5 0 0 1-1.82-9.659l13.736-5.363a5 5 0 0 1 3.637 9.315l-13.736 5.363a4.976 4.976 0 0 1-1.817.344zM121.906 189.15a5 5 0 0 1-1.82-9.659l13.736-5.363a5 5 0 1 1 3.637 9.315l-13.736 5.363a4.976 4.976 0 0 1-1.817.344z" opacity="1" data-original="#ffaa66"></path><path fill="#8282ff" d="M390.609 196.595c-.605 0-1.22-.11-1.817-.344l-13.735-5.363a5 5 0 0 1-2.839-6.476 4.998 4.998 0 0 1 6.476-2.839l13.735 5.363a5 5 0 0 1 2.839 6.476 5.003 5.003 0 0 1-4.659 3.183zM390.609 214.846c-.605 0-1.22-.11-1.817-.344l-30.26-11.815a5 5 0 0 1-2.839-6.476 4.998 4.998 0 0 1 6.476-2.839l30.26 11.815a5 5 0 0 1 2.839 6.476 5.003 5.003 0 0 1-4.659 3.183z" opacity="1" data-original="#8282ff"></path><path fill="#ffffff" d="M318.06 122.71c-6.47 6.47-16.97 6.47-23.44 0l9.839-14.839 13.601-8.601c6.47 6.48 6.47 16.97 0 23.44z" opacity="1" data-original="#ffffff"></path><path fill="#9393ff" d="M318.058 99.274c-6.472-6.472-16.966-6.472-23.439 0-6.473 6.473-6.472 16.966 0 23.439z" opacity="1" data-original="#9393ff"></path><path fill="#ffaa66" d="M165.928 349.818a4.984 4.984 0 0 1-3.536-1.465l-10.5-10.5a4.998 4.998 0 0 1 0-7.07l10.5-10.5a5 5 0 0 1 7.071 0l10.5 10.5a4.998 4.998 0 0 1 0 7.07l-10.5 10.5a4.98 4.98 0 0 1-3.535 1.465zm-3.428-15.5 3.429 3.429 3.429-3.429-3.429-3.429z" opacity="1" data-original="#ffaa66"></path><path fill="#ff6c6c" d="M133.662 472.556a4.984 4.984 0 0 1-3.536-1.465l-10.5-10.5a4.998 4.998 0 0 1 0-7.07l10.5-10.5a5 5 0 0 1 7.071 0l10.5 10.5a4.998 4.998 0 0 1 0 7.07l-10.5 10.5a4.984 4.984 0 0 1-3.535 1.465zm-3.429-15.5 3.429 3.429 3.429-3.429-3.429-3.429z" opacity="1" data-original="#ff6c6c"></path><path fill="#8282ff" d="M447.511 77.167a4.98 4.98 0 0 1-3.535-1.465l-10.5-10.5a4.998 4.998 0 0 1 0-7.07l10.5-10.5a4.998 4.998 0 0 1 7.07 0l10.5 10.5a4.998 4.998 0 0 1 0 7.07l-10.5 10.5a4.981 4.981 0 0 1-3.535 1.465zm-3.429-15.5 3.429 3.429 3.429-3.429-3.429-3.429z" opacity="1" data-original="#8282ff"></path><path fill="#ff6c6c" d="M380.229 438.696a4.98 4.98 0 0 1-3.535-1.465l-10.5-10.5a4.998 4.998 0 0 1 0-7.07l10.5-10.5a4.998 4.998 0 0 1 7.07 0l10.5 10.5a4.998 4.998 0 0 1 0 7.07l-10.5 10.5a4.978 4.978 0 0 1-3.535 1.465zm-3.428-15.5 3.429 3.429 3.429-3.429-3.429-3.429z" opacity="1" data-original="#ff6c6c"></path><path fill="#8282ff" d="M116.709 328.51c-8.271 0-15-6.729-15-15s6.729-15 15-15 15 6.729 15 15-6.729 15-15 15zm0-20c-2.757 0-5 2.243-5 5s2.243 5 5 5 5-2.243 5-5-2.243-5-5-5z" opacity="1" data-original="#8282ff"></path><path fill="url(#b)" d="M418.333 104.215c-.538-.506-.498-.433-.562-.465L259.64 42.01c-.02-.01-.03-.01-.05-.02a9.695 9.695 0 0 0-3.56-.67H256c-1.22 0-2.44.22-3.59.67-.02.01-.03.01-.05.02L94.23 103.75c-.02.01-.03.01-.05.02-3.81 1.51-6.32 5.2-6.32 9.3v138.61a9.965 9.965 0 0 0 4.211 8.135l-.011.005c.06.05.13.09.2.14a9.914 9.914 0 0 0 5.6 1.72h137.07v.003l.002.019V408.51h-25.227a5 5 0 0 0-3.727 1.667l-17.689 19.778v24.458a5 5 0 0 0 5 5H318.71a5 5 0 0 0 5-5v-24.458l-17.689-19.778a5 5 0 0 0-3.727-1.667h-25.226l.002-146.83h137.07c2.07 0 4-.63 5.6-1.72.05-.04.1-.07.15-.11l-.004-.002a9.967 9.967 0 0 0 4.254-8.168V117.706c0-4.397-2.603-10.48-5.807-13.491z" opacity="1" data-original="url(#b)"></path></g></svg>